<mxfile modified="2022-05-24T13:16:18.222Z" host="app.diagrams.net" agent="5.0 (Windows NT 10.0; WOW64) AppleWebKit/537.36 (KHTML, like Gecko) Chrome/101.0.4951.67 Safari/537.36" etag="cXMh0ufLCc6-0mw2MWvK" version="18.1.2" type="github">
  <diagram id="WI9T0HZ2pTsCkuznbFz-" name="Page-1">
    <mxGraphModel dx="1550" dy="835" grid="1" gridSize="10" guides="1" tooltips="1" connect="1" arrows="1" fold="1" page="1" pageScale="1" pageWidth="1169" pageHeight="827" math="0" shadow="0">
      <root>
        <mxCell id="0" />
        <mxCell id="1" parent="0" />
        <mxCell id="GDYjR2dz1pKBAn3Fns0m-34" style="edgeStyle=orthogonalEdgeStyle;rounded=0;orthogonalLoop=1;jettySize=auto;html=1;entryX=0.25;entryY=0;entryDx=0;entryDy=0;startArrow=classic;startFill=1;" edge="1" parent="1" source="GDYjR2dz1pKBAn3Fns0m-1" target="GDYjR2dz1pKBAn3Fns0m-25">
          <mxGeometry relative="1" as="geometry">
            <Array as="points">
              <mxPoint x="547" y="170" />
            </Array>
          </mxGeometry>
        </mxCell>
        <mxCell id="GDYjR2dz1pKBAn3Fns0m-1" value="helios-app-operations" style="shape=image;verticalLabelPosition=bottom;labelBackgroundColor=#ffffff;verticalAlign=top;aspect=fixed;imageAspect=0;image=data:image/svg+xml,PHN2ZyB4bWxuczpkYz0iaHR0cDovL3B1cmwub3JnL2RjL2VsZW1lbnRzLzEuMS8iIHhtbG5zOmNjPSJodHRwOi8vY3JlYXRpdmVjb21tb25zLm9yZy9ucyMiIHhtbG5zOnJkZj0iaHR0cDovL3d3dy53My5vcmcvMTk5OS8wMi8yMi1yZGYtc3ludGF4LW5zIyIgeG1sbnM6c3ZnPSJodHRwOi8vd3d3LnczLm9yZy8yMDAwL3N2ZyIgeG1sbnM9Imh0dHA6Ly93d3cudzMub3JnLzIwMDAvc3ZnIiB4bWxuczpzb2RpcG9kaT0iaHR0cDovL3NvZGlwb2RpLnNvdXJjZWZvcmdlLm5ldC9EVEQvc29kaXBvZGktMC5kdGQiIHhtbG5zOmlua3NjYXBlPSJodHRwOi8vd3d3Lmlua3NjYXBlLm9yZy9uYW1lc3BhY2VzL2lua3NjYXBlIiB2ZXJzaW9uPSIxLjEiIGlkPSJzdmc2MTMyMyIgaW5rc2NhcGU6dmVyc2lvbj0iMC45Mi4zICgyNDA1NTQ2LCAyMDE4LTAzLTExKSIgc29kaXBvZGk6ZG9jbmFtZT0iYXp1cmVfcG9ydGFsX3dlYl9hcHBzLnN2ZyIgeD0iMHB4IiB5PSIwcHgiIHZpZXdCb3g9IjAgMCA1MS4wMjkzMTcgNTEuMDIiIHhtbDpzcGFjZT0icHJlc2VydmUiIHdpZHRoPSI1MS4wMjkzMTYiIGhlaWdodD0iNTEuMDIiPjxtZXRhZGF0YSBpZD0ibWV0YWRhdGExMTY1NSI+PHJkZjpSREY+PGNjOldvcmsgcmRmOmFib3V0PSIiPjxkYzpmb3JtYXQ+aW1hZ2Uvc3ZnK3htbDwvZGM6Zm9ybWF0PjxkYzp0eXBlIHJkZjpyZXNvdXJjZT0iaHR0cDovL3B1cmwub3JnL2RjL2RjbWl0eXBlL1N0aWxsSW1hZ2UiLz48ZGM6dGl0bGUvPjwvY2M6V29yaz48L3JkZjpSREY+PC9tZXRhZGF0YT48ZGVmcyBpZD0iZGVmczExNjUzIi8+JiN4YTs8ZmlsdGVyIGlkPSJmaWx0ZXJfMiI+JiN4YTsJPGZlR2F1c3NpYW5CbHVyIGlkPSJmZUdhdXNzaWFuQmx1cjYxMjk2IiBzdGREZXZpYXRpb249IjIiLz4mI3hhOzwvZmlsdGVyPiYjeGE7PHNvZGlwb2RpOm5hbWVkdmlldyBib3JkZXJjb2xvcj0iIzY2NjY2NiIgYm9yZGVyb3BhY2l0eT0iMSIgZml0LW1hcmdpbi1ib3R0b209IjAiIGZpdC1tYXJnaW4tbGVmdD0iMCIgZml0LW1hcmdpbi1yaWdodD0iMCIgZml0LW1hcmdpbi10b3A9IjAiIGdyaWR0b2xlcmFuY2U9IjEwIiBndWlkZXRvbGVyYW5jZT0iMTAiIGlkPSJuYW1lZHZpZXc2MTMyNSIgaW5rc2NhcGU6Y3VycmVudC1sYXllcj0ic3ZnNjEzMjMiIGlua3NjYXBlOmN4PSItNDUuMDA0ODE4IiBpbmtzY2FwZTpjeT0iMzkuNDkwNjM4IiBpbmtzY2FwZTpwYWdlb3BhY2l0eT0iMCIgaW5rc2NhcGU6cGFnZXNoYWRvdz0iMiIgaW5rc2NhcGU6d2luZG93LWhlaWdodD0iMTAxNyIgaW5rc2NhcGU6d2luZG93LW1heGltaXplZD0iMSIgaW5rc2NhcGU6d2luZG93LXdpZHRoPSIxOTIwIiBpbmtzY2FwZTp3aW5kb3cteD0iLTgiIGlua3NjYXBlOndpbmRvdy15PSItOCIgaW5rc2NhcGU6em9vbT0iNC4zMDY1ODM0IiBvYmplY3R0b2xlcmFuY2U9IjEwIiBwYWdlY29sb3I9IiNmZmZmZmYiIHNob3dncmlkPSJmYWxzZSI+JiN4YTsJPC9zb2RpcG9kaTpuYW1lZHZpZXc+JiN4YTsmI3hhOzxwYXRoIGlkPSJwYXRoNjEzMDkiIGlua3NjYXBlOmNvbm5lY3Rvci1jdXJ2YXR1cmU9IjAiIHN0eWxlPSJmaWxsOiM1OWI0ZDkiIGQ9Im0gNDEuMDE0NTI2LDQ1Ljc2IGMgLTQuNjIsMy41MyAtMTAuMDcsNS4yNiAtMTUuNDcsNS4yNiAtNy42OCwwIC0xNS4yNywtMy40NSAtMjAuMjc5OTk5OSwtMTAuMDEgLTguNTcsLTExLjE5IC02LjQ2LC0yNy4xOCA0Ljc0OTk5OTksLTM1Ljc2IDQuNjIsLTMuNTUgMTAuMDgsLTUuMjUgMTUuNDgsLTUuMjUgNy42NywwIDE1LjI2LDMuNDUgMjAuMjgsMTAuMDEgOC41NywxMS4xOCA2LjQzLDI3LjE5IC00Ljc2LDM1Ljc1IHoiLz4mI3hhOyYjeGE7PHBhdGggaWQ9InBhdGg2MTMxNyIgaW5rc2NhcGU6Y29ubmVjdG9yLWN1cnZhdHVyZT0iMCIgc3R5bGU9ImZpbGw6I2ZmZmZmZiIgZD0ibSAzNi4zMzQ1MjYsMjkuOTggYyAxLjg1LDIuNDEgNS4yOSwyLjg1IDcuNywxLjAyIDAuMTIsLTAuMDkgMC4yMiwtMC4yMSAwLjMzLC0wLjMxIDIuNDYsMS43MyA0LjE3LDIuODcgNS4xMywzLjUzIDAuMjgsLTAuNzQgMC40OCwtMS40NSAwLjY4LC0yLjE5IC0xLjAxLC0wLjc2IC0yLjM5LC0xLjgxIC00LjM3LC0zLjQyIDAuNjUsLTEuNzIgMC40NCwtMy43MiAtMC43NSwtNS4yOCAtMS43LC0yLjIxIC00LjcyLC0yLjc3IC03LjA4LC0xLjQxIC0yLjYsLTIuMzMgLTUuNDUsLTUgLTguNDYsLTcuOTkgOS4zNSwtNS4wMyAxNiwtNC4yOSAxNiwtNC4yOSAtMS4xMSwtMS40MiAtMi4zNiwtMi42NiAtMy42OCwtMy43OCAtMy45NSwtMC42MSAtMTAuMDcsLTAuNTQgLTE3LjA3LDMuMTkgbCAtMC4wMSwtMC4wMSB2IDAgYyAtMi4zMywtMi40NCAtNC43MSwtNS4wNiAtNy4xMiwtNy44NyAtMS4xNiwwLjM3IC0yLjI5LDAuODMgLTMuMzgsMS4zOCAxLjc4LDIuOTIgNC4xOCw1Ljg3IDYuODksOC43NCAwLDAuMDEgMC4wMSwwLjAxIDAuMDIsMC4wMiAtMi4yNiwxLjU3IC00Ljc3LDMuNjggLTcuMDksNi4xMyAtMC4zLDAuMzIgLTAuNTgsMC42NCAtMC44NiwwLjk1IC0xLjM4LC0wLjI5IC0yLjg0LC0wLjIgLTQuMTk5OTk5OSwwLjI5IC0yLjMxLC00Ljk4IC0yLjEzLC04Ljk5IC0xLjc2LC0xMS4wNSAtMSwxLjA1IC0xLjk0LDIuMTUgLTIuNzUsMy4zMyAtMC42LDIuNDcgLTAuNzcsNi4wMiAxLjAxLDEwLjMgLTIuMDYsMi43IC0yLjE2LDYuNTIgLTAuMDEsOS4zNSAwLjE4LDAuMjMgMC4zNywwLjQ1IDAuNTcsMC42NSAtMC45NCwzLjIgLTEuMzYsNi4yOSAtMS40OSw4Ljk0IDAuMjQsMC4zMyAwLjI0LDAuNiAwLjQ4LDAuOTIgMS4yMywxLjU3IDIuNzYsMi44OSA0LjI1LDQuMDkgLTAuMTgsLTIuODEgMC4wMSwtNi45NSAxLjc0OTk5OTksLTExLjYxIDEuMiwwLjA5IDIuNDEsLTAuMDkgMy41NSwtMC41NyAwLjY2LDAuNTcgMS4zNCwxLjE1IDIuMDcsMS43NCAyLjUsMS45OCA1LDMuNTMgNy40Myw0Ljc0IC0wLjEyLDEuMjQgMC4xOSwyLjUyIDAuOTksMy41OSAxLjcyLDIuMjIgNC45MSwyLjY0IDcuMTMsMC45NCAwLjQ2LC0wLjM2IDAuODMsLTAuNzggMS4xMywtMS4yNCAzLjk3LDAuODggNy40NCwxLjA0IDEwLjAxLDEuMDQgMC4zOSwwIDIuMjIsLTIuNDkgMy4yNiwtNC4wMyAtMS41NiwwLjMzIC02LjIsMC45NyAtMTIuNTUsLTAuODYgLTAuMTUsLTAuNzEgLTAuNDQsLTEuNCAtMC45MSwtMi4wMiAtMS42MiwtMi4xMSAtNC41NiwtMi41NyAtNi43NiwtMS4xNSAtMi4yLC0xLjIgLTQuNTEsLTIuNyAtNi44OSwtNC41OSAtMC40OCwtMC4zOCAtMC45NSwtMC43NiAtMS4zOSwtMS4xNCAxLjQ1LC0yLjI5IDEuNjEsLTUuMjMgMC4zMiwtNy43IDAuMywtMC4yOSAwLjU4LC0wLjU5IDAuODksLTAuODggMi4zNiwtMi4yIDQuNTgsLTMuOTYgNi42NiwtNS4zOCAtMC4wOSwtMC4wOCAtMC4xNiwtMC4xNiAtMC4yNSwtMC4yNCAwLjA5LDAuMDggMC4xNiwwLjE2IDAuMjUsMC4yNCB2IDAgYyAzLjE4LDIuOTQgNi41Niw1LjczIDkuNzYsOC4yMyAtMC44NSwxLjc5IC0wLjcyLDMuOTggMC41Nyw1LjY2IHoiLz4mI3hhOzwvc3ZnPg==;" vertex="1" parent="1">
          <mxGeometry x="316" y="160" width="61" height="61" as="geometry" />
        </mxCell>
        <mxCell id="GDYjR2dz1pKBAn3Fns0m-6" style="edgeStyle=orthogonalEdgeStyle;rounded=0;orthogonalLoop=1;jettySize=auto;html=1;entryX=0.5;entryY=0;entryDx=0;entryDy=0;" edge="1" parent="1" source="GDYjR2dz1pKBAn3Fns0m-2" target="GDYjR2dz1pKBAn3Fns0m-3">
          <mxGeometry relative="1" as="geometry" />
        </mxCell>
        <mxCell id="GDYjR2dz1pKBAn3Fns0m-32" style="edgeStyle=orthogonalEdgeStyle;rounded=0;orthogonalLoop=1;jettySize=auto;html=1;entryX=0.5;entryY=1;entryDx=0;entryDy=0;startArrow=classic;startFill=1;" edge="1" parent="1" source="GDYjR2dz1pKBAn3Fns0m-2" target="GDYjR2dz1pKBAn3Fns0m-1">
          <mxGeometry relative="1" as="geometry" />
        </mxCell>
        <mxCell id="GDYjR2dz1pKBAn3Fns0m-2" value="helios-api-core" style="shape=image;verticalLabelPosition=bottom;labelBackgroundColor=#ffffff;verticalAlign=top;aspect=fixed;imageAspect=0;image=data:image/svg+xml,PHN2ZyB4bWxuczpkYz0iaHR0cDovL3B1cmwub3JnL2RjL2VsZW1lbnRzLzEuMS8iIHhtbG5zOmNjPSJodHRwOi8vY3JlYXRpdmVjb21tb25zLm9yZy9ucyMiIHhtbG5zOnJkZj0iaHR0cDovL3d3dy53My5vcmcvMTk5OS8wMi8yMi1yZGYtc3ludGF4LW5zIyIgeG1sbnM6c3ZnPSJodHRwOi8vd3d3LnczLm9yZy8yMDAwL3N2ZyIgeG1sbnM9Imh0dHA6Ly93d3cudzMub3JnLzIwMDAvc3ZnIiB4bWxuczpzb2RpcG9kaT0iaHR0cDovL3NvZGlwb2RpLnNvdXJjZWZvcmdlLm5ldC9EVEQvc29kaXBvZGktMC5kdGQiIHhtbG5zOmlua3NjYXBlPSJodHRwOi8vd3d3Lmlua3NjYXBlLm9yZy9uYW1lc3BhY2VzL2lua3NjYXBlIiB2ZXJzaW9uPSIxLjEiIGlkPSJzdmc2MTMyMyIgaW5rc2NhcGU6dmVyc2lvbj0iMC45Mi4zICgyNDA1NTQ2LCAyMDE4LTAzLTExKSIgc29kaXBvZGk6ZG9jbmFtZT0iYXp1cmVfcG9ydGFsX3dlYl9hcHBzLnN2ZyIgeD0iMHB4IiB5PSIwcHgiIHZpZXdCb3g9IjAgMCA1MS4wMjkzMTcgNTEuMDIiIHhtbDpzcGFjZT0icHJlc2VydmUiIHdpZHRoPSI1MS4wMjkzMTYiIGhlaWdodD0iNTEuMDIiPjxtZXRhZGF0YSBpZD0ibWV0YWRhdGExMTY1NSI+PHJkZjpSREY+PGNjOldvcmsgcmRmOmFib3V0PSIiPjxkYzpmb3JtYXQ+aW1hZ2Uvc3ZnK3htbDwvZGM6Zm9ybWF0PjxkYzp0eXBlIHJkZjpyZXNvdXJjZT0iaHR0cDovL3B1cmwub3JnL2RjL2RjbWl0eXBlL1N0aWxsSW1hZ2UiLz48ZGM6dGl0bGUvPjwvY2M6V29yaz48L3JkZjpSREY+PC9tZXRhZGF0YT48ZGVmcyBpZD0iZGVmczExNjUzIi8+JiN4YTs8ZmlsdGVyIGlkPSJmaWx0ZXJfMiI+JiN4YTsJPGZlR2F1c3NpYW5CbHVyIGlkPSJmZUdhdXNzaWFuQmx1cjYxMjk2IiBzdGREZXZpYXRpb249IjIiLz4mI3hhOzwvZmlsdGVyPiYjeGE7PHNvZGlwb2RpOm5hbWVkdmlldyBib3JkZXJjb2xvcj0iIzY2NjY2NiIgYm9yZGVyb3BhY2l0eT0iMSIgZml0LW1hcmdpbi1ib3R0b209IjAiIGZpdC1tYXJnaW4tbGVmdD0iMCIgZml0LW1hcmdpbi1yaWdodD0iMCIgZml0LW1hcmdpbi10b3A9IjAiIGdyaWR0b2xlcmFuY2U9IjEwIiBndWlkZXRvbGVyYW5jZT0iMTAiIGlkPSJuYW1lZHZpZXc2MTMyNSIgaW5rc2NhcGU6Y3VycmVudC1sYXllcj0ic3ZnNjEzMjMiIGlua3NjYXBlOmN4PSItNDUuMDA0ODE4IiBpbmtzY2FwZTpjeT0iMzkuNDkwNjM4IiBpbmtzY2FwZTpwYWdlb3BhY2l0eT0iMCIgaW5rc2NhcGU6cGFnZXNoYWRvdz0iMiIgaW5rc2NhcGU6d2luZG93LWhlaWdodD0iMTAxNyIgaW5rc2NhcGU6d2luZG93LW1heGltaXplZD0iMSIgaW5rc2NhcGU6d2luZG93LXdpZHRoPSIxOTIwIiBpbmtzY2FwZTp3aW5kb3cteD0iLTgiIGlua3NjYXBlOndpbmRvdy15PSItOCIgaW5rc2NhcGU6em9vbT0iNC4zMDY1ODM0IiBvYmplY3R0b2xlcmFuY2U9IjEwIiBwYWdlY29sb3I9IiNmZmZmZmYiIHNob3dncmlkPSJmYWxzZSI+JiN4YTsJPC9zb2RpcG9kaTpuYW1lZHZpZXc+JiN4YTsmI3hhOzxwYXRoIGlkPSJwYXRoNjEzMDkiIGlua3NjYXBlOmNvbm5lY3Rvci1jdXJ2YXR1cmU9IjAiIHN0eWxlPSJmaWxsOiM1OWI0ZDkiIGQ9Im0gNDEuMDE0NTI2LDQ1Ljc2IGMgLTQuNjIsMy41MyAtMTAuMDcsNS4yNiAtMTUuNDcsNS4yNiAtNy42OCwwIC0xNS4yNywtMy40NSAtMjAuMjc5OTk5OSwtMTAuMDEgLTguNTcsLTExLjE5IC02LjQ2LC0yNy4xOCA0Ljc0OTk5OTksLTM1Ljc2IDQuNjIsLTMuNTUgMTAuMDgsLTUuMjUgMTUuNDgsLTUuMjUgNy42NywwIDE1LjI2LDMuNDUgMjAuMjgsMTAuMDEgOC41NywxMS4xOCA2LjQzLDI3LjE5IC00Ljc2LDM1Ljc1IHoiLz4mI3hhOyYjeGE7PHBhdGggaWQ9InBhdGg2MTMxNyIgaW5rc2NhcGU6Y29ubmVjdG9yLWN1cnZhdHVyZT0iMCIgc3R5bGU9ImZpbGw6I2ZmZmZmZiIgZD0ibSAzNi4zMzQ1MjYsMjkuOTggYyAxLjg1LDIuNDEgNS4yOSwyLjg1IDcuNywxLjAyIDAuMTIsLTAuMDkgMC4yMiwtMC4yMSAwLjMzLC0wLjMxIDIuNDYsMS43MyA0LjE3LDIuODcgNS4xMywzLjUzIDAuMjgsLTAuNzQgMC40OCwtMS40NSAwLjY4LC0yLjE5IC0xLjAxLC0wLjc2IC0yLjM5LC0xLjgxIC00LjM3LC0zLjQyIDAuNjUsLTEuNzIgMC40NCwtMy43MiAtMC43NSwtNS4yOCAtMS43LC0yLjIxIC00LjcyLC0yLjc3IC03LjA4LC0xLjQxIC0yLjYsLTIuMzMgLTUuNDUsLTUgLTguNDYsLTcuOTkgOS4zNSwtNS4wMyAxNiwtNC4yOSAxNiwtNC4yOSAtMS4xMSwtMS40MiAtMi4zNiwtMi42NiAtMy42OCwtMy43OCAtMy45NSwtMC42MSAtMTAuMDcsLTAuNTQgLTE3LjA3LDMuMTkgbCAtMC4wMSwtMC4wMSB2IDAgYyAtMi4zMywtMi40NCAtNC43MSwtNS4wNiAtNy4xMiwtNy44NyAtMS4xNiwwLjM3IC0yLjI5LDAuODMgLTMuMzgsMS4zOCAxLjc4LDIuOTIgNC4xOCw1Ljg3IDYuODksOC43NCAwLDAuMDEgMC4wMSwwLjAxIDAuMDIsMC4wMiAtMi4yNiwxLjU3IC00Ljc3LDMuNjggLTcuMDksNi4xMyAtMC4zLDAuMzIgLTAuNTgsMC42NCAtMC44NiwwLjk1IC0xLjM4LC0wLjI5IC0yLjg0LC0wLjIgLTQuMTk5OTk5OSwwLjI5IC0yLjMxLC00Ljk4IC0yLjEzLC04Ljk5IC0xLjc2LC0xMS4wNSAtMSwxLjA1IC0xLjk0LDIuMTUgLTIuNzUsMy4zMyAtMC42LDIuNDcgLTAuNzcsNi4wMiAxLjAxLDEwLjMgLTIuMDYsMi43IC0yLjE2LDYuNTIgLTAuMDEsOS4zNSAwLjE4LDAuMjMgMC4zNywwLjQ1IDAuNTcsMC42NSAtMC45NCwzLjIgLTEuMzYsNi4yOSAtMS40OSw4Ljk0IDAuMjQsMC4zMyAwLjI0LDAuNiAwLjQ4LDAuOTIgMS4yMywxLjU3IDIuNzYsMi44OSA0LjI1LDQuMDkgLTAuMTgsLTIuODEgMC4wMSwtNi45NSAxLjc0OTk5OTksLTExLjYxIDEuMiwwLjA5IDIuNDEsLTAuMDkgMy41NSwtMC41NyAwLjY2LDAuNTcgMS4zNCwxLjE1IDIuMDcsMS43NCAyLjUsMS45OCA1LDMuNTMgNy40Myw0Ljc0IC0wLjEyLDEuMjQgMC4xOSwyLjUyIDAuOTksMy41OSAxLjcyLDIuMjIgNC45MSwyLjY0IDcuMTMsMC45NCAwLjQ2LC0wLjM2IDAuODMsLTAuNzggMS4xMywtMS4yNCAzLjk3LDAuODggNy40NCwxLjA0IDEwLjAxLDEuMDQgMC4zOSwwIDIuMjIsLTIuNDkgMy4yNiwtNC4wMyAtMS41NiwwLjMzIC02LjIsMC45NyAtMTIuNTUsLTAuODYgLTAuMTUsLTAuNzEgLTAuNDQsLTEuNCAtMC45MSwtMi4wMiAtMS42MiwtMi4xMSAtNC41NiwtMi41NyAtNi43NiwtMS4xNSAtMi4yLC0xLjIgLTQuNTEsLTIuNyAtNi44OSwtNC41OSAtMC40OCwtMC4zOCAtMC45NSwtMC43NiAtMS4zOSwtMS4xNCAxLjQ1LC0yLjI5IDEuNjEsLTUuMjMgMC4zMiwtNy43IDAuMywtMC4yOSAwLjU4LC0wLjU5IDAuODksLTAuODggMi4zNiwtMi4yIDQuNTgsLTMuOTYgNi42NiwtNS4zOCAtMC4wOSwtMC4wOCAtMC4xNiwtMC4xNiAtMC4yNSwtMC4yNCAwLjA5LDAuMDggMC4xNiwwLjE2IDAuMjUsMC4yNCB2IDAgYyAzLjE4LDIuOTQgNi41Niw1LjczIDkuNzYsOC4yMyAtMC44NSwxLjc5IC0wLjcyLDMuOTggMC41Nyw1LjY2IHoiLz4mI3hhOzwvc3ZnPg==;" vertex="1" parent="1">
          <mxGeometry x="321.0000000000001" y="320" width="51" height="51" as="geometry" />
        </mxCell>
        <mxCell id="GDYjR2dz1pKBAn3Fns0m-33" style="edgeStyle=orthogonalEdgeStyle;rounded=0;orthogonalLoop=1;jettySize=auto;html=1;entryX=0.5;entryY=0;entryDx=0;entryDy=0;entryPerimeter=0;startArrow=none;startFill=0;" edge="1" parent="1" source="GDYjR2dz1pKBAn3Fns0m-3" target="GDYjR2dz1pKBAn3Fns0m-8">
          <mxGeometry relative="1" as="geometry" />
        </mxCell>
        <mxCell id="GDYjR2dz1pKBAn3Fns0m-3" value="ObtonData" style="shape=image;verticalLabelPosition=bottom;labelBackgroundColor=#ffffff;verticalAlign=top;aspect=fixed;imageAspect=0;image=data:image/svg+xml,PHN2ZyB4bWxuczpjYz0iaHR0cDovL2NyZWF0aXZlY29tbW9ucy5vcmcvbnMjIiB4bWxuczpkYz0iaHR0cDovL3B1cmwub3JnL2RjL2VsZW1lbnRzLzEuMS8iIHhtbG5zOmlua3NjYXBlPSJodHRwOi8vd3d3Lmlua3NjYXBlLm9yZy9uYW1lc3BhY2VzL2lua3NjYXBlIiB4bWxuczpyZGY9Imh0dHA6Ly93d3cudzMub3JnLzE5OTkvMDIvMjItcmRmLXN5bnRheC1ucyMiIHhtbG5zOnNvZGlwb2RpPSJodHRwOi8vc29kaXBvZGkuc291cmNlZm9yZ2UubmV0L0RURC9zb2RpcG9kaS0wLmR0ZCIgeG1sbnM6c3ZnPSJodHRwOi8vd3d3LnczLm9yZy8yMDAwL3N2ZyIgeG1sbnM9Imh0dHA6Ly93d3cudzMub3JnLzIwMDAvc3ZnIiB4bWxuczp4bGluaz0iaHR0cDovL3d3dy53My5vcmcvMTk5OS94bGluayIgdmVyc2lvbj0iMS4xIiBpZD0ic3ZnNzY2MjIiIGlua3NjYXBlOnZlcnNpb249IjAuOTIuMyAoMjQwNTU0NiwgMjAxOC0wMy0xMSkiIHNvZGlwb2RpOmRvY25hbWU9ImRhdGFfY29ubmVjdGlvbnMuc3ZnIiB4PSIwcHgiIHk9IjBweCIgdmlld0JveD0iMCAwIDE4LjE2IDI0LjA0IiBzdHlsZT0iZW5hYmxlLWJhY2tncm91bmQ6bmV3IDAgMCAxOC4xNiAyNC4wNDsiIHhtbDpzcGFjZT0icHJlc2VydmUiPiYjeGE7PHNvZGlwb2RpOm5hbWVkdmlldyBib3JkZXJjb2xvcj0iIzY2NjY2NiIgYm9yZGVyb3BhY2l0eT0iMSIgZml0LW1hcmdpbi1ib3R0b209IjAiIGZpdC1tYXJnaW4tbGVmdD0iMCIgZml0LW1hcmdpbi1yaWdodD0iMCIgZml0LW1hcmdpbi10b3A9IjAiIGdyaWR0b2xlcmFuY2U9IjEwIiBndWlkZXRvbGVyYW5jZT0iMTAiIGlkPSJuYW1lZHZpZXc3NjYyNCIgaW5rc2NhcGU6Y3VycmVudC1sYXllcj0ic3ZnNzY2MjIiIGlua3NjYXBlOmN4PSIxMy42MDI3NzEiIGlua3NjYXBlOmN5PSIxMi40OTI5OTMiIGlua3NjYXBlOnBhZ2VvcGFjaXR5PSIwIiBpbmtzY2FwZTpwYWdlc2hhZG93PSIyIiBpbmtzY2FwZTp3aW5kb3ctaGVpZ2h0PSIxMDE3IiBpbmtzY2FwZTp3aW5kb3ctbWF4aW1pemVkPSIxIiBpbmtzY2FwZTp3aW5kb3ctd2lkdGg9IjE5MjAiIGlua3NjYXBlOndpbmRvdy14PSItOCIgaW5rc2NhcGU6d2luZG93LXk9Ii04IiBpbmtzY2FwZTp6b29tPSIxOS4xMjI1MTEiIG9iamVjdHRvbGVyYW5jZT0iMTAiIHBhZ2Vjb2xvcj0iI2ZmZmZmZiIgc2hvd2dyaWQ9ImZhbHNlIj4mI3hhOwk8L3NvZGlwb2RpOm5hbWVkdmlldz4mI3hhOzxnIGlkPSJnNzY2MjAiIHRyYW5zZm9ybT0idHJhbnNsYXRlKDAsLTAuMDAxODYzOCkiPiYjeGE7CTx0aXRsZSBpZD0idGl0bGU3NjU3MCI+UGFnZS0xPC90aXRsZT4mI3hhOwk8ZyBpZD0iZ3JvdXA0NTY5LTEiPiYjeGE7CQk8dGl0bGUgaWQ9InRpdGxlNzY1NzIiPkRhdGEgQ29ubmVjdGlvbnM8L3RpdGxlPiYjeGE7CQk8ZyBpZD0ic2hhcGU0NTcwLTIiPiYjeGE7CQkJPHRpdGxlIGlkPSJ0aXRsZTc2NTc0Ij5TaGVldC40NTcwPC90aXRsZT4mI3hhOwkJCTxwYXRoIGlkPSJwYXRoNzY1NzYiIGlua3NjYXBlOmNvbm5lY3Rvci1jdXJ2YXR1cmU9IjAiIHN0eWxlPSJmaWxsOiMwMEJDRjI7IiBkPSJNMCwzLjMyYzAsMTcuNDUsMCwxNy40NSwwLDE3LjQ1ICAgICBjMCwxLjgsNC4xMywzLjI3LDkuMTgsMy4yN2MwLTIwLjcyLDAtMjAuNzIsMC0yMC43MkwwLDMuMzJ6Ii8+JiN4YTsJCTwvZz4mI3hhOwkJPGcgaWQ9InNoYXBlNDU3MS00IiB0cmFuc2Zvcm09InRyYW5zbGF0ZSg4Ljk4NDU3KSI+JiN4YTsJCQk8dGl0bGUgaWQ9InRpdGxlNzY1NzkiPlNoZWV0LjQ1NzE8L3RpdGxlPiYjeGE7CQkJPHBhdGggaWQ9InBhdGg3NjU4MSIgaW5rc2NhcGU6Y29ubmVjdG9yLWN1cnZhdHVyZT0iMCIgc3R5bGU9ImZpbGw6IzI5QzdGNDsiIGQ9Ik0wLDI0LjA0YzAuMTIsMCwwLjEyLDAsMC4xMiwwICAgICBjNS4wMSwwLDkuMDYtMS40Nyw5LjA2LTMuMjdjMC0xNy40NSwwLTE3LjQ1LDAtMTcuNDVDMCwzLjMyLDAsMy4zMiwwLDMuMzJWMjQuMDR6Ii8+JiN4YTsJCTwvZz4mI3hhOwkJPGcgaWQ9InNoYXBlNDU3Mi02IiB0cmFuc2Zvcm09InRyYW5zbGF0ZSgwLC0xNy4zOTgyKSI+JiN4YTsJCQk8dGl0bGUgaWQ9InRpdGxlNzY1ODQiPlNoZWV0LjQ1NzI8L3RpdGxlPiYjeGE7CQkJPHBhdGggaWQ9InBhdGg3NjU4NiIgaW5rc2NhcGU6Y29ubmVjdG9yLWN1cnZhdHVyZT0iMCIgc3R5bGU9ImZpbGw6I0ZGRkZGRjsiIGQ9Ik0wLDIwLjcyYzAtMS44Myw0LjA4LTMuMzIsOS4wOC0zLjMyICAgICBjNS4wMiwwLDkuMDgsMS40OSw5LjA4LDMuMzJjMCwxLjg1LTQuMDYsMy4zMi05LjA4LDMuMzJDNC4wOCwyNC4wNCwwLDIyLjU3LDAsMjAuNzJ6Ii8+JiN4YTsJCTwvZz4mI3hhOwkJPGcgaWQ9InNoYXBlNDU3My04IiB0cmFuc2Zvcm09InRyYW5zbGF0ZSgxLjk1MzE3LC0xOC43NjY2KSI+JiN4YTsJCQk8dGl0bGUgaWQ9InRpdGxlNzY1ODkiPlNoZWV0LjQ1NzM8L3RpdGxlPiYjeGE7CQkJPHBhdGggaWQ9InBhdGg3NjU5MSIgaW5rc2NhcGU6Y29ubmVjdG9yLWN1cnZhdHVyZT0iMCIgc3R5bGU9ImZpbGw6Izg1QjM1MTsiIGQ9Ik0wLDIxLjg5YzAtMS4xOCwzLjItMi4xNSw3LjEzLTIuMTUgICAgIGMzLjk0LDAsNy4xMywwLjk3LDcuMTMsMi4xNWMwLDEuMi0zLjE5LDIuMTUtNy4xMywyLjE1QzMuMiwyNC4wNCwwLDIzLjA5LDAsMjEuODl6Ii8+JiN4YTsJCTwvZz4mI3hhOwkJPGcgaWQ9InNoYXBlNDU3NC0xMCIgdHJhbnNmb3JtPSJ0cmFuc2xhdGUoMS45NTMxNywtMTkuNTQ4NikiPiYjeGE7CQkJPHRpdGxlIGlkPSJ0aXRsZTc2NTk0Ij5TaGVldC40NTc0PC90aXRsZT4mI3hhOwkJCTxwYXRoIGlkPSJwYXRoNzY1OTYiIGlua3NjYXBlOmNvbm5lY3Rvci1jdXJ2YXR1cmU9IjAiIHN0eWxlPSJmaWxsOiNCQUM4NEE7IiBkPSJNMTIuNzYsMjQuMDRjMC45Mi0wLjM5LDEuNS0wLjgxLDEuNS0xLjMxICAgICBjMC0xLjIzLTMuMi0yLjItNy4xMy0yLjJTMCwyMS41LDAsMjIuNzNjMCwwLjUsMC41OSwwLjkyLDEuNTEsMS4zMWMxLjMxLTAuNSwzLjMxLTAuODUsNS42Mi0wLjg1ICAgICBDOS40MSwyMy4xOSwxMS40NSwyMy41NCwxMi43NiwyNC4wNHoiLz4mI3hhOwkJPC9nPiYjeGE7CQk8ZyBpZD0ic2hhcGU0NTc1LTEyIiB0cmFuc2Zvcm09InRyYW5zbGF0ZSgyLjUzOTEyLC02LjA2MDA2KSI+JiN4YTsJCQk8dGl0bGUgaWQ9InRpdGxlNzY1OTkiPlNoZWV0LjQ1NzU8L3RpdGxlPiYjeGE7CQkJPHBhdGggaWQ9InBhdGg3NjYwMSIgaW5rc2NhcGU6Y29ubmVjdG9yLWN1cnZhdHVyZT0iMCIgc3R5bGU9ImZpbGw6I0ZGRkZGRjsiIGQ9Ik0xMi4zNSwyMy40MmMtMC41LDAuNDMtMS4xMiwwLjYyLTEuOTcsMC42MiAgICAgYy0yLjgyLDAtMi44MiwwLTIuODIsMGMwLTcuNDIsMC03LjQyLDAtNy40MmMyLjY3LDAsMi42NywwLDIuNjcsMGMwLjg1LDAsMS40NiwwLjEyLDEuOTMsMC40N2MwLjQzLDAuMjcsMC42MiwwLjcsMC42MiwxLjI1ICAgICBjMCwwLjQzLTAuMTYsMC43OC0wLjQ2LDEuMTRjLTAuMjcsMC4yMy0wLjU5LDAuNDItMC45NywwLjU1bDAsMGMwLjU0LDAuMDcsMC45NywwLjI2LDEuMjcsMC42MmMwLjMyLDAuMzIsMC40NywwLjcxLDAuNDcsMS4xNyAgICAgQzEzLjA5LDIyLjQ4LDEyLjgyLDIzLjAzLDEyLjM1LDIzLjQyeiBNNS40NywyMi45OWMtMC43LDAuNzEtMS42NywxLjA1LTIuODMsMS4wNWMtMi42NCwwLTIuNjQsMC0yLjY0LDBjMC03LjQyLDAtNy40MiwwLTcuNDIgICAgIGMyLjY0LDAsMi42NCwwLDIuNjQsMGMyLjYsMCwzLjksMS4xNywzLjksMy42QzYuNTQsMjEuMzksNi4yLDIyLjI5LDUuNDcsMjIuOTl6Ii8+JiN4YTsJCTwvZz4mI3hhOwkJPGcgaWQ9InNoYXBlNDU3Ni0xNCIgdHJhbnNmb3JtPSJ0cmFuc2xhdGUoNC4xMDE2NSwtNy40Mjg0NikiPiYjeGE7CQkJPHRpdGxlIGlkPSJ0aXRsZTc2NjA0Ij5TaGVldC40NTc2PC90aXRsZT4mI3hhOwkJCTxwYXRoIGlkPSJwYXRoNzY2MDYiIGlua3NjYXBlOmNvbm5lY3Rvci1jdXJ2YXR1cmU9IjAiIHN0eWxlPSJmaWxsOiMwMEJDRjI7IiBkPSJNMC44NywxOS4zNWMtMC44NywwLTAuODcsMC0wLjg3LDAgICAgIGMwLDQuNjksMCw0LjY5LDAsNC42OWMwLjg3LDAsMC44NywwLDAuODcsMGMwLjc4LDAsMS4zOS0wLjIzLDEuOC0wLjY0YzAuNDYtMC40MywwLjY1LTEuMDIsMC42NS0xLjc1YzAtMC43LTAuMTktMS4yNS0wLjYxLTEuNjcgICAgIEMyLjI2LDE5LjYsMS42NSwxOS4zNSwwLjg3LDE5LjM1eiIvPiYjeGE7CQk8L2c+JiN4YTsJCTxnIGlkPSJzaGFwZTQ1NzctMTYiIHRyYW5zZm9ybT0idHJhbnNsYXRlKDExLjcxOSwtMTAuMzYwNykiPiYjeGE7CQkJPHRpdGxlIGlkPSJ0aXRsZTc2NjA5Ij5TaGVldC40NTc3PC90aXRsZT4mI3hhOwkJCTxwYXRoIGlkPSJwYXRoNzY2MTEiIGlua3NjYXBlOmNvbm5lY3Rvci1jdXJ2YXR1cmU9IjAiIHN0eWxlPSJmaWxsOiMyOUM3RjQ7IiBkPSJNMS42MiwyMy44MWMwLjIxLTAuMTksMC4zMy0wLjQzLDAuMzMtMC42OSAgICAgYzAtMC41NS0wLjQxLTAuODMtMS4yOC0wLjgzYy0wLjY3LDAtMC42NywwLTAuNjcsMGMwLDEuNzUsMCwxLjc1LDAsMS43NWMwLjc5LDAsMC43OSwwLDAuNzksMEMxLjEyLDI0LjA0LDEuNDIsMjMuOTcsMS42MiwyMy44MSAgICAgeiIvPiYjeGE7CQk8L2c+JiN4YTsJCTxnIGlkPSJzaGFwZTQ1NzgtMTgiIHRyYW5zZm9ybT0idHJhbnNsYXRlKDExLjcxOSwtNy4yMzI5NykiPiYjeGE7CQkJPHRpdGxlIGlkPSJ0aXRsZTc2NjE0Ij5TaGVldC40NTc4PC90aXRsZT4mI3hhOwkJCTxwYXRoIGlkPSJwYXRoNzY2MTYiIGlua3NjYXBlOmNvbm5lY3Rvci1jdXJ2YXR1cmU9IjAiIHN0eWxlPSJmaWxsOiMyOUM3RjQ7IiBkPSJNMS44MSwyMi4zM2MtMC4yLTAuMTUtMC41LTAuMjQtMC44OC0wLjI0ICAgICBjLTAuOTMsMC0wLjkzLDAtMC45MywwYzAsMS45NSwwLDEuOTUsMCwxLjk1YzAuOTMsMCwwLjkzLDAsMC45MywwYzAuMzgsMCwwLjY4LTAuMDcsMC44OC0wLjI2YzAuMjMtMC4yLDAuMzQtMC40MywwLjM0LTAuNzUgICAgIEMyLjE1LDIyLjc2LDIuMDQsMjIuNTMsMS44MSwyMi4zM3oiLz4mI3hhOwkJPC9nPiYjeGE7CTwvZz4mI3hhOzwvZz4mI3hhOzwvc3ZnPg==;" vertex="1" parent="1">
          <mxGeometry x="325.5" y="430" width="42" height="55" as="geometry" />
        </mxCell>
        <mxCell id="GDYjR2dz1pKBAn3Fns0m-30" style="edgeStyle=orthogonalEdgeStyle;rounded=0;orthogonalLoop=1;jettySize=auto;html=1;entryX=1;entryY=0.5;entryDx=0;entryDy=0;startArrow=classic;startFill=1;" edge="1" parent="1" source="GDYjR2dz1pKBAn3Fns0m-4" target="GDYjR2dz1pKBAn3Fns0m-2">
          <mxGeometry relative="1" as="geometry">
            <Array as="points">
              <mxPoint x="440" y="191" />
              <mxPoint x="440" y="346" />
            </Array>
          </mxGeometry>
        </mxCell>
        <mxCell id="GDYjR2dz1pKBAn3Fns0m-31" style="edgeStyle=orthogonalEdgeStyle;rounded=0;orthogonalLoop=1;jettySize=auto;html=1;startArrow=classic;startFill=1;" edge="1" parent="1" source="GDYjR2dz1pKBAn3Fns0m-4">
          <mxGeometry relative="1" as="geometry">
            <mxPoint x="368" y="440" as="targetPoint" />
            <Array as="points">
              <mxPoint x="410" y="210" />
              <mxPoint x="410" y="440" />
            </Array>
          </mxGeometry>
        </mxCell>
        <mxCell id="GDYjR2dz1pKBAn3Fns0m-4" value="5+ func apps" style="aspect=fixed;html=1;points=[];align=center;image;fontSize=12;image=img/lib/azure2/compute/Function_Apps.svg;" vertex="1" parent="1">
          <mxGeometry x="632" y="161" width="68" height="60" as="geometry" />
        </mxCell>
        <mxCell id="GDYjR2dz1pKBAn3Fns0m-10" style="edgeStyle=orthogonalEdgeStyle;rounded=0;orthogonalLoop=1;jettySize=auto;html=1;" edge="1" parent="1" source="GDYjR2dz1pKBAn3Fns0m-7" target="GDYjR2dz1pKBAn3Fns0m-8">
          <mxGeometry relative="1" as="geometry">
            <Array as="points">
              <mxPoint x="117" y="580" />
            </Array>
          </mxGeometry>
        </mxCell>
        <mxCell id="GDYjR2dz1pKBAn3Fns0m-7" value="SpeedGuiides" style="shadow=0;dashed=0;html=1;strokeColor=none;fillColor=#EF8F21;labelPosition=center;verticalLabelPosition=bottom;verticalAlign=top;align=center;outlineConnect=0;shape=mxgraph.veeam.ms_sharepoint;" vertex="1" parent="1">
          <mxGeometry x="110" y="160" width="44.8" height="44.8" as="geometry" />
        </mxCell>
        <mxCell id="GDYjR2dz1pKBAn3Fns0m-11" style="edgeStyle=orthogonalEdgeStyle;rounded=0;orthogonalLoop=1;jettySize=auto;html=1;entryX=0.5;entryY=1;entryDx=0;entryDy=0;" edge="1" parent="1" source="GDYjR2dz1pKBAn3Fns0m-8" target="GDYjR2dz1pKBAn3Fns0m-3">
          <mxGeometry relative="1" as="geometry" />
        </mxCell>
        <mxCell id="GDYjR2dz1pKBAn3Fns0m-8" value="100&amp;lt; StoredProcedures" style="html=1;strokeColor=none;fillColor=#0079D6;labelPosition=center;verticalLabelPosition=middle;verticalAlign=top;align=center;fontSize=12;outlineConnect=0;spacingTop=-6;fontColor=#FFFFFF;sketch=0;shape=mxgraph.sitemap.script;" vertex="1" parent="1">
          <mxGeometry x="150" y="540" width="140" height="70" as="geometry" />
        </mxCell>
        <mxCell id="GDYjR2dz1pKBAn3Fns0m-13" style="edgeStyle=orthogonalEdgeStyle;rounded=0;orthogonalLoop=1;jettySize=auto;html=1;" edge="1" parent="1" source="GDYjR2dz1pKBAn3Fns0m-12">
          <mxGeometry relative="1" as="geometry">
            <mxPoint x="368" y="470" as="targetPoint" />
            <Array as="points">
              <mxPoint x="368" y="470" />
            </Array>
          </mxGeometry>
        </mxCell>
        <mxCell id="GDYjR2dz1pKBAn3Fns0m-12" value="web01" style="image;html=1;image=img/lib/clip_art/computers/Virtual_Machine_128x128.png" vertex="1" parent="1">
          <mxGeometry x="530" y="417.5" width="80" height="80" as="geometry" />
        </mxCell>
        <mxCell id="GDYjR2dz1pKBAn3Fns0m-15" style="edgeStyle=orthogonalEdgeStyle;rounded=0;orthogonalLoop=1;jettySize=auto;html=1;entryX=1;entryY=0.5;entryDx=0;entryDy=0;" edge="1" parent="1" source="GDYjR2dz1pKBAn3Fns0m-14" target="GDYjR2dz1pKBAn3Fns0m-12">
          <mxGeometry relative="1" as="geometry" />
        </mxCell>
        <mxCell id="GDYjR2dz1pKBAn3Fns0m-16" value="X integrations" style="edgeLabel;html=1;align=center;verticalAlign=middle;resizable=0;points=[];" vertex="1" connectable="0" parent="GDYjR2dz1pKBAn3Fns0m-15">
          <mxGeometry x="0.101" y="-2" relative="1" as="geometry">
            <mxPoint as="offset" />
          </mxGeometry>
        </mxCell>
        <mxCell id="GDYjR2dz1pKBAn3Fns0m-14" value="" style="aspect=fixed;perimeter=ellipsePerimeter;html=1;align=center;shadow=0;dashed=0;spacingTop=3;image;image=img/lib/active_directory/internet_cloud.svg;" vertex="1" parent="1">
          <mxGeometry x="610" y="578.5" width="50" height="31.5" as="geometry" />
        </mxCell>
        <mxCell id="GDYjR2dz1pKBAn3Fns0m-18" style="edgeStyle=orthogonalEdgeStyle;rounded=0;orthogonalLoop=1;jettySize=auto;html=1;startArrow=classic;startFill=1;" edge="1" parent="1" source="GDYjR2dz1pKBAn3Fns0m-17" target="GDYjR2dz1pKBAn3Fns0m-7">
          <mxGeometry relative="1" as="geometry" />
        </mxCell>
        <mxCell id="GDYjR2dz1pKBAn3Fns0m-19" style="edgeStyle=orthogonalEdgeStyle;rounded=0;orthogonalLoop=1;jettySize=auto;html=1;entryX=0.5;entryY=0;entryDx=0;entryDy=0;startArrow=classic;startFill=1;" edge="1" parent="1" source="GDYjR2dz1pKBAn3Fns0m-17" target="GDYjR2dz1pKBAn3Fns0m-1">
          <mxGeometry relative="1" as="geometry" />
        </mxCell>
        <mxCell id="GDYjR2dz1pKBAn3Fns0m-17" value="CompanyManager" style="shape=umlActor;verticalLabelPosition=bottom;verticalAlign=top;html=1;outlineConnect=0;" vertex="1" parent="1">
          <mxGeometry x="210" y="30" width="30" height="60" as="geometry" />
        </mxCell>
        <mxCell id="GDYjR2dz1pKBAn3Fns0m-23" style="edgeStyle=orthogonalEdgeStyle;rounded=0;orthogonalLoop=1;jettySize=auto;html=1;entryX=1;entryY=0.5;entryDx=0;entryDy=0;startArrow=classic;startFill=1;" edge="1" parent="1" source="GDYjR2dz1pKBAn3Fns0m-22" target="GDYjR2dz1pKBAn3Fns0m-1">
          <mxGeometry relative="1" as="geometry" />
        </mxCell>
        <mxCell id="GDYjR2dz1pKBAn3Fns0m-22" value="InvestorService" style="shape=umlActor;verticalLabelPosition=bottom;verticalAlign=top;html=1;outlineConnect=0;" vertex="1" parent="1">
          <mxGeometry x="410" width="30" height="60" as="geometry" />
        </mxCell>
        <mxCell id="GDYjR2dz1pKBAn3Fns0m-29" value="X integrations" style="edgeStyle=orthogonalEdgeStyle;rounded=0;orthogonalLoop=1;jettySize=auto;html=1;" edge="1" parent="1" source="GDYjR2dz1pKBAn3Fns0m-24" target="GDYjR2dz1pKBAn3Fns0m-25">
          <mxGeometry relative="1" as="geometry" />
        </mxCell>
        <mxCell id="GDYjR2dz1pKBAn3Fns0m-24" value="" style="aspect=fixed;perimeter=ellipsePerimeter;html=1;align=center;shadow=0;dashed=0;spacingTop=3;image;image=img/lib/active_directory/internet_cloud.svg;" vertex="1" parent="1">
          <mxGeometry x="700" y="334.25" width="50" height="31.5" as="geometry" />
        </mxCell>
        <mxCell id="GDYjR2dz1pKBAn3Fns0m-27" style="edgeStyle=orthogonalEdgeStyle;rounded=0;orthogonalLoop=1;jettySize=auto;html=1;entryX=1;entryY=0.5;entryDx=0;entryDy=0;" edge="1" parent="1" source="GDYjR2dz1pKBAn3Fns0m-25" target="GDYjR2dz1pKBAn3Fns0m-3">
          <mxGeometry relative="1" as="geometry" />
        </mxCell>
        <mxCell id="GDYjR2dz1pKBAn3Fns0m-25" value="Old-Api" style="shape=image;verticalLabelPosition=bottom;labelBackgroundColor=#ffffff;verticalAlign=top;aspect=fixed;imageAspect=0;image=data:image/svg+xml,PHN2ZyB4bWxuczpkYz0iaHR0cDovL3B1cmwub3JnL2RjL2VsZW1lbnRzLzEuMS8iIHhtbG5zOmNjPSJodHRwOi8vY3JlYXRpdmVjb21tb25zLm9yZy9ucyMiIHhtbG5zOnJkZj0iaHR0cDovL3d3dy53My5vcmcvMTk5OS8wMi8yMi1yZGYtc3ludGF4LW5zIyIgeG1sbnM6c3ZnPSJodHRwOi8vd3d3LnczLm9yZy8yMDAwL3N2ZyIgeG1sbnM9Imh0dHA6Ly93d3cudzMub3JnLzIwMDAvc3ZnIiB4bWxuczpzb2RpcG9kaT0iaHR0cDovL3NvZGlwb2RpLnNvdXJjZWZvcmdlLm5ldC9EVEQvc29kaXBvZGktMC5kdGQiIHhtbG5zOmlua3NjYXBlPSJodHRwOi8vd3d3Lmlua3NjYXBlLm9yZy9uYW1lc3BhY2VzL2lua3NjYXBlIiB2ZXJzaW9uPSIxLjEiIGlkPSJzdmc2MTMyMyIgaW5rc2NhcGU6dmVyc2lvbj0iMC45Mi4zICgyNDA1NTQ2LCAyMDE4LTAzLTExKSIgc29kaXBvZGk6ZG9jbmFtZT0iYXp1cmVfcG9ydGFsX3dlYl9hcHBzLnN2ZyIgeD0iMHB4IiB5PSIwcHgiIHZpZXdCb3g9IjAgMCA1MS4wMjkzMTcgNTEuMDIiIHhtbDpzcGFjZT0icHJlc2VydmUiIHdpZHRoPSI1MS4wMjkzMTYiIGhlaWdodD0iNTEuMDIiPjxtZXRhZGF0YSBpZD0ibWV0YWRhdGExMTY1NSI+PHJkZjpSREY+PGNjOldvcmsgcmRmOmFib3V0PSIiPjxkYzpmb3JtYXQ+aW1hZ2Uvc3ZnK3htbDwvZGM6Zm9ybWF0PjxkYzp0eXBlIHJkZjpyZXNvdXJjZT0iaHR0cDovL3B1cmwub3JnL2RjL2RjbWl0eXBlL1N0aWxsSW1hZ2UiLz48ZGM6dGl0bGUvPjwvY2M6V29yaz48L3JkZjpSREY+PC9tZXRhZGF0YT48ZGVmcyBpZD0iZGVmczExNjUzIi8+JiN4YTs8ZmlsdGVyIGlkPSJmaWx0ZXJfMiI+JiN4YTsJPGZlR2F1c3NpYW5CbHVyIGlkPSJmZUdhdXNzaWFuQmx1cjYxMjk2IiBzdGREZXZpYXRpb249IjIiLz4mI3hhOzwvZmlsdGVyPiYjeGE7PHNvZGlwb2RpOm5hbWVkdmlldyBib3JkZXJjb2xvcj0iIzY2NjY2NiIgYm9yZGVyb3BhY2l0eT0iMSIgZml0LW1hcmdpbi1ib3R0b209IjAiIGZpdC1tYXJnaW4tbGVmdD0iMCIgZml0LW1hcmdpbi1yaWdodD0iMCIgZml0LW1hcmdpbi10b3A9IjAiIGdyaWR0b2xlcmFuY2U9IjEwIiBndWlkZXRvbGVyYW5jZT0iMTAiIGlkPSJuYW1lZHZpZXc2MTMyNSIgaW5rc2NhcGU6Y3VycmVudC1sYXllcj0ic3ZnNjEzMjMiIGlua3NjYXBlOmN4PSItNDUuMDA0ODE4IiBpbmtzY2FwZTpjeT0iMzkuNDkwNjM4IiBpbmtzY2FwZTpwYWdlb3BhY2l0eT0iMCIgaW5rc2NhcGU6cGFnZXNoYWRvdz0iMiIgaW5rc2NhcGU6d2luZG93LWhlaWdodD0iMTAxNyIgaW5rc2NhcGU6d2luZG93LW1heGltaXplZD0iMSIgaW5rc2NhcGU6d2luZG93LXdpZHRoPSIxOTIwIiBpbmtzY2FwZTp3aW5kb3cteD0iLTgiIGlua3NjYXBlOndpbmRvdy15PSItOCIgaW5rc2NhcGU6em9vbT0iNC4zMDY1ODM0IiBvYmplY3R0b2xlcmFuY2U9IjEwIiBwYWdlY29sb3I9IiNmZmZmZmYiIHNob3dncmlkPSJmYWxzZSI+JiN4YTsJPC9zb2RpcG9kaTpuYW1lZHZpZXc+JiN4YTsmI3hhOzxwYXRoIGlkPSJwYXRoNjEzMDkiIGlua3NjYXBlOmNvbm5lY3Rvci1jdXJ2YXR1cmU9IjAiIHN0eWxlPSJmaWxsOiM1OWI0ZDkiIGQ9Im0gNDEuMDE0NTI2LDQ1Ljc2IGMgLTQuNjIsMy41MyAtMTAuMDcsNS4yNiAtMTUuNDcsNS4yNiAtNy42OCwwIC0xNS4yNywtMy40NSAtMjAuMjc5OTk5OSwtMTAuMDEgLTguNTcsLTExLjE5IC02LjQ2LC0yNy4xOCA0Ljc0OTk5OTksLTM1Ljc2IDQuNjIsLTMuNTUgMTAuMDgsLTUuMjUgMTUuNDgsLTUuMjUgNy42NywwIDE1LjI2LDMuNDUgMjAuMjgsMTAuMDEgOC41NywxMS4xOCA2LjQzLDI3LjE5IC00Ljc2LDM1Ljc1IHoiLz4mI3hhOyYjeGE7PHBhdGggaWQ9InBhdGg2MTMxNyIgaW5rc2NhcGU6Y29ubmVjdG9yLWN1cnZhdHVyZT0iMCIgc3R5bGU9ImZpbGw6I2ZmZmZmZiIgZD0ibSAzNi4zMzQ1MjYsMjkuOTggYyAxLjg1LDIuNDEgNS4yOSwyLjg1IDcuNywxLjAyIDAuMTIsLTAuMDkgMC4yMiwtMC4yMSAwLjMzLC0wLjMxIDIuNDYsMS43MyA0LjE3LDIuODcgNS4xMywzLjUzIDAuMjgsLTAuNzQgMC40OCwtMS40NSAwLjY4LC0yLjE5IC0xLjAxLC0wLjc2IC0yLjM5LC0xLjgxIC00LjM3LC0zLjQyIDAuNjUsLTEuNzIgMC40NCwtMy43MiAtMC43NSwtNS4yOCAtMS43LC0yLjIxIC00LjcyLC0yLjc3IC03LjA4LC0xLjQxIC0yLjYsLTIuMzMgLTUuNDUsLTUgLTguNDYsLTcuOTkgOS4zNSwtNS4wMyAxNiwtNC4yOSAxNiwtNC4yOSAtMS4xMSwtMS40MiAtMi4zNiwtMi42NiAtMy42OCwtMy43OCAtMy45NSwtMC42MSAtMTAuMDcsLTAuNTQgLTE3LjA3LDMuMTkgbCAtMC4wMSwtMC4wMSB2IDAgYyAtMi4zMywtMi40NCAtNC43MSwtNS4wNiAtNy4xMiwtNy44NyAtMS4xNiwwLjM3IC0yLjI5LDAuODMgLTMuMzgsMS4zOCAxLjc4LDIuOTIgNC4xOCw1Ljg3IDYuODksOC43NCAwLDAuMDEgMC4wMSwwLjAxIDAuMDIsMC4wMiAtMi4yNiwxLjU3IC00Ljc3LDMuNjggLTcuMDksNi4xMyAtMC4zLDAuMzIgLTAuNTgsMC42NCAtMC44NiwwLjk1IC0xLjM4LC0wLjI5IC0yLjg0LC0wLjIgLTQuMTk5OTk5OSwwLjI5IC0yLjMxLC00Ljk4IC0yLjEzLC04Ljk5IC0xLjc2LC0xMS4wNSAtMSwxLjA1IC0xLjk0LDIuMTUgLTIuNzUsMy4zMyAtMC42LDIuNDcgLTAuNzcsNi4wMiAxLjAxLDEwLjMgLTIuMDYsMi43IC0yLjE2LDYuNTIgLTAuMDEsOS4zNSAwLjE4LDAuMjMgMC4zNywwLjQ1IDAuNTcsMC42NSAtMC45NCwzLjIgLTEuMzYsNi4yOSAtMS40OSw4Ljk0IDAuMjQsMC4zMyAwLjI0LDAuNiAwLjQ4LDAuOTIgMS4yMywxLjU3IDIuNzYsMi44OSA0LjI1LDQuMDkgLTAuMTgsLTIuODEgMC4wMSwtNi45NSAxLjc0OTk5OTksLTExLjYxIDEuMiwwLjA5IDIuNDEsLTAuMDkgMy41NSwtMC41NyAwLjY2LDAuNTcgMS4zNCwxLjE1IDIuMDcsMS43NCAyLjUsMS45OCA1LDMuNTMgNy40Myw0Ljc0IC0wLjEyLDEuMjQgMC4xOSwyLjUyIDAuOTksMy41OSAxLjcyLDIuMjIgNC45MSwyLjY0IDcuMTMsMC45NCAwLjQ2LC0wLjM2IDAuODMsLTAuNzggMS4xMywtMS4yNCAzLjk3LDAuODggNy40NCwxLjA0IDEwLjAxLDEuMDQgMC4zOSwwIDIuMjIsLTIuNDkgMy4yNiwtNC4wMyAtMS41NiwwLjMzIC02LjIsMC45NyAtMTIuNTUsLTAuODYgLTAuMTUsLTAuNzEgLTAuNDQsLTEuNCAtMC45MSwtMi4wMiAtMS42MiwtMi4xMSAtNC41NiwtMi41NyAtNi43NiwtMS4xNSAtMi4yLC0xLjIgLTQuNTEsLTIuNyAtNi44OSwtNC41OSAtMC40OCwtMC4zOCAtMC45NSwtMC43NiAtMS4zOSwtMS4xNCAxLjQ1LC0yLjI5IDEuNjEsLTUuMjMgMC4zMiwtNy43IDAuMywtMC4yOSAwLjU4LC0wLjU5IDAuODksLTAuODggMi4zNiwtMi4yIDQuNTgsLTMuOTYgNi42NiwtNS4zOCAtMC4wOSwtMC4wOCAtMC4xNiwtMC4xNiAtMC4yNSwtMC4yNCAwLjA5LDAuMDggMC4xNiwwLjE2IDAuMjUsMC4yNCB2IDAgYyAzLjE4LDIuOTQgNi41Niw1LjczIDkuNzYsOC4yMyAtMC44NSwxLjc5IC0wLjcyLDMuOTggMC41Nyw1LjY2IHoiLz4mI3hhOzwvc3ZnPg==;" vertex="1" parent="1">
          <mxGeometry x="534.0000000000001" y="324.5" width="51" height="51" as="geometry" />
        </mxCell>
        <mxCell id="GDYjR2dz1pKBAn3Fns0m-36" style="edgeStyle=orthogonalEdgeStyle;rounded=0;orthogonalLoop=1;jettySize=auto;html=1;startArrow=none;startFill=0;" edge="1" parent="1" source="GDYjR2dz1pKBAn3Fns0m-35" target="GDYjR2dz1pKBAn3Fns0m-25">
          <mxGeometry relative="1" as="geometry" />
        </mxCell>
        <mxCell id="GDYjR2dz1pKBAn3Fns0m-35" value="PIP" style="aspect=fixed;perimeter=ellipsePerimeter;html=1;align=center;shadow=0;dashed=0;spacingTop=3;image;image=img/lib/active_directory/internet_cloud.svg;" vertex="1" parent="1">
          <mxGeometry x="850" y="250" width="50" height="31.5" as="geometry" />
        </mxCell>
        <mxCell id="GDYjR2dz1pKBAn3Fns0m-38" style="edgeStyle=orthogonalEdgeStyle;rounded=0;orthogonalLoop=1;jettySize=auto;html=1;entryX=1;entryY=0.5;entryDx=0;entryDy=0;startArrow=none;startFill=0;" edge="1" parent="1" source="GDYjR2dz1pKBAn3Fns0m-37" target="GDYjR2dz1pKBAn3Fns0m-12">
          <mxGeometry relative="1" as="geometry">
            <Array as="points">
              <mxPoint x="730" y="458" />
            </Array>
          </mxGeometry>
        </mxCell>
        <mxCell id="GDYjR2dz1pKBAn3Fns0m-37" value="SODA" style="aspect=fixed;perimeter=ellipsePerimeter;html=1;align=center;shadow=0;dashed=0;spacingTop=3;image;image=img/lib/active_directory/internet_cloud.svg;" vertex="1" parent="1">
          <mxGeometry x="710" y="578.5" width="50" height="31.5" as="geometry" />
        </mxCell>
        <mxCell id="GDYjR2dz1pKBAn3Fns0m-42" style="edgeStyle=orthogonalEdgeStyle;rounded=0;orthogonalLoop=1;jettySize=auto;html=1;startArrow=none;startFill=0;" edge="1" parent="1" source="GDYjR2dz1pKBAn3Fns0m-39" target="GDYjR2dz1pKBAn3Fns0m-12">
          <mxGeometry relative="1" as="geometry" />
        </mxCell>
        <mxCell id="GDYjR2dz1pKBAn3Fns0m-39" value="Nationalbank" style="aspect=fixed;perimeter=ellipsePerimeter;html=1;align=center;shadow=0;dashed=0;spacingTop=3;image;image=img/lib/active_directory/internet_cloud.svg;" vertex="1" parent="1">
          <mxGeometry x="480" y="600" width="50" height="31.5" as="geometry" />
        </mxCell>
        <mxCell id="GDYjR2dz1pKBAn3Fns0m-46" style="edgeStyle=orthogonalEdgeStyle;rounded=0;orthogonalLoop=1;jettySize=auto;html=1;entryX=1;entryY=0.65;entryDx=0;entryDy=0;entryPerimeter=0;startArrow=classic;startFill=1;" edge="1" parent="1" source="GDYjR2dz1pKBAn3Fns0m-43" target="GDYjR2dz1pKBAn3Fns0m-4">
          <mxGeometry relative="1" as="geometry" />
        </mxCell>
        <mxCell id="GDYjR2dz1pKBAn3Fns0m-43" value="Rillion" style="aspect=fixed;perimeter=ellipsePerimeter;html=1;align=center;shadow=0;dashed=0;spacingTop=3;image;image=img/lib/active_directory/internet_cloud.svg;" vertex="1" parent="1">
          <mxGeometry x="830" y="110" width="50" height="31.5" as="geometry" />
        </mxCell>
        <mxCell id="GDYjR2dz1pKBAn3Fns0m-45" style="edgeStyle=orthogonalEdgeStyle;rounded=0;orthogonalLoop=1;jettySize=auto;html=1;startArrow=none;startFill=0;" edge="1" parent="1" source="GDYjR2dz1pKBAn3Fns0m-44" target="GDYjR2dz1pKBAn3Fns0m-4">
          <mxGeometry relative="1" as="geometry">
            <Array as="points">
              <mxPoint x="830" y="205" />
              <mxPoint x="830" y="210" />
            </Array>
          </mxGeometry>
        </mxCell>
        <mxCell id="GDYjR2dz1pKBAn3Fns0m-44" value="BC365 On prem" style="shape=image;verticalLabelPosition=bottom;labelBackgroundColor=#ffffff;verticalAlign=top;aspect=fixed;imageAspect=0;image=data:image/svg+xml,PHN2ZyB4bWxuczpjYz0iaHR0cDovL2NyZWF0aXZlY29tbW9ucy5vcmcvbnMjIiB4bWxuczpkYz0iaHR0cDovL3B1cmwub3JnL2RjL2VsZW1lbnRzLzEuMS8iIHhtbG5zOmlua3NjYXBlPSJodHRwOi8vd3d3Lmlua3NjYXBlLm9yZy9uYW1lc3BhY2VzL2lua3NjYXBlIiB4bWxuczpyZGY9Imh0dHA6Ly93d3cudzMub3JnLzE5OTkvMDIvMjItcmRmLXN5bnRheC1ucyMiIHhtbG5zOnNvZGlwb2RpPSJodHRwOi8vc29kaXBvZGkuc291cmNlZm9yZ2UubmV0L0RURC9zb2RpcG9kaS0wLmR0ZCIgeG1sbnM6c3ZnPSJodHRwOi8vd3d3LnczLm9yZy8yMDAwL3N2ZyIgeG1sbnM9Imh0dHA6Ly93d3cudzMub3JnLzIwMDAvc3ZnIiB4bWxuczp4bGluaz0iaHR0cDovL3d3dy53My5vcmcvMTk5OS94bGluayIgdmVyc2lvbj0iMS4xIiBpZD0ic3ZnMjU3MTY4IiBpbmtzY2FwZTp2ZXJzaW9uPSIwLjkyLjMgKDI0MDU1NDYsIDIwMTgtMDMtMTEpIiBzb2RpcG9kaTpkb2NuYW1lPSJkeW5hbWljX2NybV9zZXJ2ZXIuc3ZnIiB4PSIwcHgiIHk9IjBweCIgdmlld0JveD0iMCAwIDQ4LjQxIDY5Ljc2IiBzdHlsZT0iZW5hYmxlLWJhY2tncm91bmQ6bmV3IDAgMCA0OC40MSA2OS43NjsiIHhtbDpzcGFjZT0icHJlc2VydmUiPiYjeGE7PHNvZGlwb2RpOm5hbWVkdmlldyBib3JkZXJjb2xvcj0iIzY2NjY2NiIgYm9yZGVyb3BhY2l0eT0iMSIgZml0LW1hcmdpbi1ib3R0b209IjAiIGZpdC1tYXJnaW4tbGVmdD0iMCIgZml0LW1hcmdpbi1yaWdodD0iMCIgZml0LW1hcmdpbi10b3A9IjAiIGdyaWR0b2xlcmFuY2U9IjEwIiBndWlkZXRvbGVyYW5jZT0iMTAiIGlkPSJuYW1lZHZpZXcyNTcxNzAiIGlua3NjYXBlOmN1cnJlbnQtbGF5ZXI9InN2ZzI1NzE2OCIgaW5rc2NhcGU6Y3g9IjMyLjE5MDg5NyIgaW5rc2NhcGU6Y3k9IjQ2LjUwODM0NiIgaW5rc2NhcGU6cGFnZW9wYWNpdHk9IjAiIGlua3NjYXBlOnBhZ2VzaGFkb3c9IjIiIGlua3NjYXBlOndpbmRvdy1oZWlnaHQ9IjEwMTciIGlua3NjYXBlOndpbmRvdy1tYXhpbWl6ZWQ9IjEiIGlua3NjYXBlOndpbmRvdy13aWR0aD0iMTkyMCIgaW5rc2NhcGU6d2luZG93LXg9Ii04IiBpbmtzY2FwZTp3aW5kb3cteT0iLTgiIGlua3NjYXBlOnpvb209IjkuMTI1MzY4OSIgb2JqZWN0dG9sZXJhbmNlPSIxMCIgcGFnZWNvbG9yPSIjZmZmZmZmIiBzaG93Z3JpZD0iZmFsc2UiPiYjeGE7CTwvc29kaXBvZGk6bmFtZWR2aWV3PiYjeGE7PGcgaWQ9ImcyNTcxNjYiIHRyYW5zZm9ybT0idHJhbnNsYXRlKC0wLjc1LC0wLjc1MDAzODc4KSI+JiN4YTsJPHRpdGxlIGlkPSJ0aXRsZTI1NzA2NyI+UGFnZS0xPC90aXRsZT4mI3hhOwk8ZyBpZD0iZ3JvdXAxMTMwOC0xIiB0cmFuc2Zvcm09InRyYW5zbGF0ZSgxLjUsLTEuNSkiPiYjeGE7CQk8dGl0bGUgaWQ9InRpdGxlMjU3MDY5Ij5EeW5hbWljIENSTSBTZXJ2ZXI8L3RpdGxlPiYjeGE7CQk8ZyBpZD0iZ3JvdXAxMTMwOS0yIj4mI3hhOwkJCTx0aXRsZSBpZD0idGl0bGUyNTcwNzEiPkdlbmVyaWMgU2VydmljZS4xOTQxMTwvdGl0bGU+JiN4YTsJCQk8ZyBpZD0ic2hhcGUxMTMxMC0zIiB0cmFuc2Zvcm09InRyYW5zbGF0ZSgwLC0wLjAwNzM5ODc2KSI+JiN4YTsJCQkJPHRpdGxlIGlkPSJ0aXRsZTI1NzA3MyI+cmVjdDE1NDA1PC90aXRsZT4mI3hhOwkJCQkmI3hhOwkJCQkJPHJlY3QgaWQ9InJlY3QyNTcwNzUiIHk9IjMuMDEiIHN0eWxlPSJmaWxsOiNGRkZGRkY7c3Ryb2tlOiM1NTZBOEE7c3Ryb2tlLXdpZHRoOjEuNTtzdHJva2UtbWl0ZXJsaW1pdDozOyIgd2lkdGg9IjM5Ljc1IiBoZWlnaHQ9IjY4LjI1Ii8+JiN4YTsJCQk8L2c+JiN4YTsJCQk8ZyBpZD0iZ3JvdXAxMTMxMS01IiB0cmFuc2Zvcm09InRyYW5zbGF0ZSgxLjUsLTAuNzU3Mzk5KSI+JiN4YTsJCQkJPHRpdGxlIGlkPSJ0aXRsZTI1NzA3OCI+ZzE1NDI1PC90aXRsZT4mI3hhOwkJCQk8ZyBpZD0ic2hhcGUxMTMxMi02IiB0cmFuc2Zvcm09InRyYW5zbGF0ZSgxOCkiPiYjeGE7CQkJCQk8dGl0bGUgaWQ9InRpdGxlMjU3MDgwIj5yZWN0MTU0MDc8L3RpdGxlPiYjeGE7CQkJCQk8cmVjdCBpZD0icmVjdDI1NzA4MiIgeT0iNC41MSIgc3R5bGU9ImZpbGw6I0U1RTVFNTsiIHdpZHRoPSIxOS41IiBoZWlnaHQ9IjY2Ljc1Ii8+JiN4YTsJCQkJPC9nPiYjeGE7CQkJCTxnIGlkPSJzaGFwZTExMzEzLTgiIHRyYW5zZm9ybT0idHJhbnNsYXRlKDAsLTQ4KSI+JiN4YTsJCQkJCTx0aXRsZSBpZD0idGl0bGUyNTcwODUiPnJlY3QxNTQwOTwvdGl0bGU+JiN4YTsJCQkJCTxyZWN0IGlkPSJyZWN0MjU3MDg3IiB5PSI2OS4wMSIgc3R5bGU9ImZpbGw6IzJCQzdGNDsiIHdpZHRoPSIxOCIgaGVpZ2h0PSIyLjI1Ii8+JiN4YTsJCQkJPC9nPiYjeGE7CQkJCTxnIGlkPSJzaGFwZTExMzE0LTEwIiB0cmFuc2Zvcm09InRyYW5zbGF0ZSgwLC01OC41KSI+JiN4YTsJCQkJCTx0aXRsZSBpZD0idGl0bGUyNTcwOTAiPnBvbHlnb24xNTQxMTwvdGl0bGU+JiN4YTsJCQkJCTxyZWN0IGlkPSJyZWN0MjU3MDkyIiB5PSI2OS4wMSIgc3R5bGU9ImZpbGw6bm9uZTsiIHdpZHRoPSIyNyIgaGVpZ2h0PSIyLjI1Ii8+JiN4YTsJCQkJPC9nPiYjeGE7CQkJCTxnIGlkPSJzaGFwZTExMzE1LTEyIiB0cmFuc2Zvcm09InRyYW5zbGF0ZSgwLC01OC41KSI+JiN4YTsJCQkJCTx0aXRsZSBpZD0idGl0bGUyNTcwOTUiPnBvbHlsaW5lMTU0MTM8L3RpdGxlPiYjeGE7CQkJCQk8cmVjdCBpZD0icmVjdDI1NzA5NyIgeT0iNjkuMDEiIHN0eWxlPSJmaWxsOm5vbmU7IiB3aWR0aD0iMjciIGhlaWdodD0iMi4yNSIvPiYjeGE7CQkJCTwvZz4mI3hhOwkJCQk8ZyBpZD0ic2hhcGUxMTMxNi0xNCIgdHJhbnNmb3JtPSJ0cmFuc2xhdGUoMCwtNTMuMjUpIj4mI3hhOwkJCQkJPHRpdGxlIGlkPSJ0aXRsZTI1NzEwMCI+cmVjdDE1NDE1PC90aXRsZT4mI3hhOwkJCQkJPHJlY3QgaWQ9InJlY3QyNTcxMDIiIHk9IjY5LjAxIiBzdHlsZT0iZmlsbDojMkJDN0Y0OyIgd2lkdGg9IjE4IiBoZWlnaHQ9IjIuMjUiLz4mI3hhOwkJCQk8L2c+JiN4YTsJCQkJPGcgaWQ9InNoYXBlMTEzMTctMTYiIHRyYW5zZm9ybT0idHJhbnNsYXRlKDAsLTU4LjUpIj4mI3hhOwkJCQkJPHRpdGxlIGlkPSJ0aXRsZTI1NzEwNSI+cmVjdDE1NDE3PC90aXRsZT4mI3hhOwkJCQkJPHJlY3QgaWQ9InJlY3QyNTcxMDciIHk9IjY5LjAxIiBzdHlsZT0iZmlsbDojMkJDN0Y0OyIgd2lkdGg9IjE4IiBoZWlnaHQ9IjIuMjUiLz4mI3hhOwkJCQk8L2c+JiN4YTsJCQkJPGcgaWQ9InNoYXBlMTEzMTgtMTgiIHRyYW5zZm9ybT0idHJhbnNsYXRlKDE4LC00OCkiPiYjeGE7CQkJCQk8dGl0bGUgaWQ9InRpdGxlMjU3MTEwIj5yZWN0MTU0MTk8L3RpdGxlPiYjeGE7CQkJCQk8cmVjdCBpZD0icmVjdDI1NzExMiIgeT0iNjkuMDEiIHN0eWxlPSJmaWxsOiM1NTZBOEE7IiB3aWR0aD0iMTkuNSIgaGVpZ2h0PSIyLjI1Ii8+JiN4YTsJCQkJPC9nPiYjeGE7CQkJCTxnIGlkPSJzaGFwZTExMzE5LTIwIiB0cmFuc2Zvcm09InRyYW5zbGF0ZSgxOCwtNTMuMjUpIj4mI3hhOwkJCQkJPHRpdGxlIGlkPSJ0aXRsZTI1NzExNSI+cmVjdDE1NDIxPC90aXRsZT4mI3hhOwkJCQkJPHJlY3QgaWQ9InJlY3QyNTcxMTciIHk9IjY5LjAxIiBzdHlsZT0iZmlsbDojNTU2QThBOyIgd2lkdGg9IjE5LjUiIGhlaWdodD0iMi4yNSIvPiYjeGE7CQkJCTwvZz4mI3hhOwkJCQk8ZyBpZD0ic2hhcGUxMTMyMC0yMiIgdHJhbnNmb3JtPSJ0cmFuc2xhdGUoMTgsLTU4LjUpIj4mI3hhOwkJCQkJPHRpdGxlIGlkPSJ0aXRsZTI1NzEyMCI+cmVjdDE1NDIzPC90aXRsZT4mI3hhOwkJCQkJPHJlY3QgaWQ9InJlY3QyNTcxMjIiIHk9IjY5LjAxIiBzdHlsZT0iZmlsbDojNTU2QThBOyIgd2lkdGg9IjE5LjUiIGhlaWdodD0iMi4yNSIvPiYjeGE7CQkJCTwvZz4mI3hhOwkJCTwvZz4mI3hhOwkJCTxnIGlkPSJzaGFwZTExMzIxLTI0IiB0cmFuc2Zvcm09InRyYW5zbGF0ZSgwLjc1LC01OS4yNTc0KSI+JiN4YTsJCQkJPHRpdGxlIGlkPSJ0aXRsZTI1NzEyNiI+cmVjdDE1NDI3PC90aXRsZT4mI3hhOwkJCQk8cmVjdCBpZD0icmVjdDI1NzEyOCIgeT0iNjkuMDEiIHN0eWxlPSJmaWxsOiM1NTZBOEE7IiB3aWR0aD0iMi4yNSIgaGVpZ2h0PSIyLjI1Ii8+JiN4YTsJCQk8L2c+JiN4YTsJCQk8ZyBpZD0ic2hhcGUxMTMyMi0yNiIgdHJhbnNmb3JtPSJ0cmFuc2xhdGUoMC43NSwtNTQuMDA3NCkiPiYjeGE7CQkJCTx0aXRsZSBpZD0idGl0bGUyNTcxMzEiPnJlY3QxNTQyOTwvdGl0bGU+JiN4YTsJCQkJPHJlY3QgaWQ9InJlY3QyNTcxMzMiIHk9IjY5LjAxIiBzdHlsZT0iZmlsbDojNTU2QThBOyIgd2lkdGg9IjIuMjUiIGhlaWdodD0iMi4yNSIvPiYjeGE7CQkJPC9nPiYjeGE7CQkJPGcgaWQ9InNoYXBlMTEzMjMtMjgiIHRyYW5zZm9ybT0idHJhbnNsYXRlKDAuNzUsLTQ4Ljc1NzQpIj4mI3hhOwkJCQk8dGl0bGUgaWQ9InRpdGxlMjU3MTM2Ij5yZWN0MTU0MzE8L3RpdGxlPiYjeGE7CQkJCTxyZWN0IGlkPSJyZWN0MjU3MTM4IiB5PSI2OS4wMSIgc3R5bGU9ImZpbGw6IzU1NkE4QTsiIHdpZHRoPSIyLjI1IiBoZWlnaHQ9IjIuMjUiLz4mI3hhOwkJCTwvZz4mI3hhOwkJCTxnIGlkPSJzaGFwZTExMzI0LTMwIiB0cmFuc2Zvcm09InRyYW5zbGF0ZSgxMy42OTgzKSI+JiN4YTsJCQkJPHRpdGxlIGlkPSJ0aXRsZTI1NzE0MSI+cG9seWdvbjE1NDM1LjExNzM3PC90aXRsZT4mI3hhOwkJCQkmI3hhOwkJCQkJPHBhdGggaWQ9InBhdGgyNTcxNDMiIGlua3NjYXBlOmNvbm5lY3Rvci1jdXJ2YXR1cmU9IjAiIHN0eWxlPSJmaWxsOiNGRkZGRkY7c3Ryb2tlOiMwMDkxQzg7c3Ryb2tlLXdpZHRoOjEuNTtzdHJva2UtbWl0ZXJsaW1pdDozOyIgZD0iICAgICAgTTguMjcsNzEuMjZMMCw1Ny4wMmw4LjI3LTE0LjIzaDE2LjU1bDguMjcsMTQuMjNsLTguMjcsMTQuMjRIOC4yN3oiLz4mI3hhOwkJCTwvZz4mI3hhOwkJPC9nPiYjeGE7CQk8ZyBpZD0iZ3JvdXAxMTMyNS0zMiIgdHJhbnNmb3JtPSJ0cmFuc2xhdGUoMjQuNTQyMSwtMy40NzYxOCkiPiYjeGE7CQkJPHRpdGxlIGlkPSJ0aXRsZTI1NzE0NyI+RHluYW1pYyAzNjUgIzI8L3RpdGxlPiYjeGE7CQkJPGcgaWQ9InNoYXBlMTEzMjYtMzMiIHRyYW5zZm9ybT0idHJhbnNsYXRlKDAsLTAuMTQ5Mzc5KSI+JiN4YTsJCQkJPHRpdGxlIGlkPSJ0aXRsZTI1NzE0OSI+cG9seWdvbjEwNTg8L3RpdGxlPiYjeGE7CQkJCTxwYXRoIGlkPSJwYXRoMjU3MTUxIiBpbmtzY2FwZTpjb25uZWN0b3ItY3VydmF0dXJlPSIwIiBzdHlsZT0iZmlsbDojM0E5NkREOyIgZD0iTTAsNTYuNjZ2MTQuNmw0LjE0LTExLjg4TDAsNTYuNjZ6Ii8+JiN4YTsJCQk8L2c+JiN4YTsJCQk8ZyBpZD0ic2hhcGUxMTMyNy0zNSIgdHJhbnNmb3JtPSJ0cmFuc2xhdGUoMC4xODkyMTMpIj4mI3hhOwkJCQk8dGl0bGUgaWQ9InRpdGxlMjU3MTU0Ij5wb2x5Z29uMTA2MDwvdGl0bGU+JiN4YTsJCQkJPHBhdGggaWQ9InBhdGgyNTcxNTYiIGlua3NjYXBlOmNvbm5lY3Rvci1jdXJ2YXR1cmU9IjAiIHN0eWxlPSJmaWxsOiMzQTk2REQ7IiBkPSJNMCw3MS4yNmwxMy4wOS03LjM1di02Ljc0TDAsNzEuMjZ6Ii8+JiN4YTsJCQk8L2c+JiN4YTsJCQk8ZyBpZD0ic2hhcGUxMTMyOC0zNyIgdHJhbnNmb3JtPSJ0cmFuc2xhdGUoMCwtMTEuNTEyMSkiPiYjeGE7CQkJCTx0aXRsZSBpZD0idGl0bGUyNTcxNTkiPnBvbHlnb24xMDYyPC90aXRsZT4mI3hhOwkJCQk8cGF0aCBpZD0icGF0aDI1NzE2MSIgaW5rc2NhcGU6Y29ubmVjdG9yLWN1cnZhdHVyZT0iMCIgc3R5bGU9ImZpbGw6IzNBOTZERDsiIGQ9Ik04LjU0LDcxLjI2bDMuOTctMy4yM0wwLDYxLjM4djUuNjkgICAgICBMOC41NCw3MS4yNnoiLz4mI3hhOwkJCTwvZz4mI3hhOwkJPC9nPiYjeGE7CTwvZz4mI3hhOzwvZz4mI3hhOzwvc3ZnPg==;" vertex="1" parent="1">
          <mxGeometry x="960" y="170" width="48" height="70" as="geometry" />
        </mxCell>
        <mxCell id="GDYjR2dz1pKBAn3Fns0m-52" style="edgeStyle=orthogonalEdgeStyle;rounded=0;orthogonalLoop=1;jettySize=auto;html=1;entryX=-0.006;entryY=0.207;entryDx=0;entryDy=0;entryPerimeter=0;startArrow=classic;startFill=1;" edge="1" parent="1" source="GDYjR2dz1pKBAn3Fns0m-47" target="GDYjR2dz1pKBAn3Fns0m-4">
          <mxGeometry relative="1" as="geometry" />
        </mxCell>
        <mxCell id="GDYjR2dz1pKBAn3Fns0m-47" value="BC365" style="shape=image;verticalLabelPosition=bottom;labelBackgroundColor=#ffffff;verticalAlign=top;aspect=fixed;imageAspect=0;image=data:image/svg+xml,PHN2ZyB4bWxuczpjYz0iaHR0cDovL2NyZWF0aXZlY29tbW9ucy5vcmcvbnMjIiB4bWxuczpkYz0iaHR0cDovL3B1cmwub3JnL2RjL2VsZW1lbnRzLzEuMS8iIHhtbG5zOmlua3NjYXBlPSJodHRwOi8vd3d3Lmlua3NjYXBlLm9yZy9uYW1lc3BhY2VzL2lua3NjYXBlIiB4bWxuczpyZGY9Imh0dHA6Ly93d3cudzMub3JnLzE5OTkvMDIvMjItcmRmLXN5bnRheC1ucyMiIHhtbG5zOnNvZGlwb2RpPSJodHRwOi8vc29kaXBvZGkuc291cmNlZm9yZ2UubmV0L0RURC9zb2RpcG9kaS0wLmR0ZCIgeG1sbnM6c3ZnPSJodHRwOi8vd3d3LnczLm9yZy8yMDAwL3N2ZyIgeG1sbnM9Imh0dHA6Ly93d3cudzMub3JnLzIwMDAvc3ZnIiB4bWxuczp4bGluaz0iaHR0cDovL3d3dy53My5vcmcvMTk5OS94bGluayIgdmVyc2lvbj0iMS4xIiBpZD0ic3ZnMjU3MTY4IiBpbmtzY2FwZTp2ZXJzaW9uPSIwLjkyLjMgKDI0MDU1NDYsIDIwMTgtMDMtMTEpIiBzb2RpcG9kaTpkb2NuYW1lPSJkeW5hbWljX2NybV9zZXJ2ZXIuc3ZnIiB4PSIwcHgiIHk9IjBweCIgdmlld0JveD0iMCAwIDQ4LjQxIDY5Ljc2IiBzdHlsZT0iZW5hYmxlLWJhY2tncm91bmQ6bmV3IDAgMCA0OC40MSA2OS43NjsiIHhtbDpzcGFjZT0icHJlc2VydmUiPiYjeGE7PHNvZGlwb2RpOm5hbWVkdmlldyBib3JkZXJjb2xvcj0iIzY2NjY2NiIgYm9yZGVyb3BhY2l0eT0iMSIgZml0LW1hcmdpbi1ib3R0b209IjAiIGZpdC1tYXJnaW4tbGVmdD0iMCIgZml0LW1hcmdpbi1yaWdodD0iMCIgZml0LW1hcmdpbi10b3A9IjAiIGdyaWR0b2xlcmFuY2U9IjEwIiBndWlkZXRvbGVyYW5jZT0iMTAiIGlkPSJuYW1lZHZpZXcyNTcxNzAiIGlua3NjYXBlOmN1cnJlbnQtbGF5ZXI9InN2ZzI1NzE2OCIgaW5rc2NhcGU6Y3g9IjMyLjE5MDg5NyIgaW5rc2NhcGU6Y3k9IjQ2LjUwODM0NiIgaW5rc2NhcGU6cGFnZW9wYWNpdHk9IjAiIGlua3NjYXBlOnBhZ2VzaGFkb3c9IjIiIGlua3NjYXBlOndpbmRvdy1oZWlnaHQ9IjEwMTciIGlua3NjYXBlOndpbmRvdy1tYXhpbWl6ZWQ9IjEiIGlua3NjYXBlOndpbmRvdy13aWR0aD0iMTkyMCIgaW5rc2NhcGU6d2luZG93LXg9Ii04IiBpbmtzY2FwZTp3aW5kb3cteT0iLTgiIGlua3NjYXBlOnpvb209IjkuMTI1MzY4OSIgb2JqZWN0dG9sZXJhbmNlPSIxMCIgcGFnZWNvbG9yPSIjZmZmZmZmIiBzaG93Z3JpZD0iZmFsc2UiPiYjeGE7CTwvc29kaXBvZGk6bmFtZWR2aWV3PiYjeGE7PGcgaWQ9ImcyNTcxNjYiIHRyYW5zZm9ybT0idHJhbnNsYXRlKC0wLjc1LC0wLjc1MDAzODc4KSI+JiN4YTsJPHRpdGxlIGlkPSJ0aXRsZTI1NzA2NyI+UGFnZS0xPC90aXRsZT4mI3hhOwk8ZyBpZD0iZ3JvdXAxMTMwOC0xIiB0cmFuc2Zvcm09InRyYW5zbGF0ZSgxLjUsLTEuNSkiPiYjeGE7CQk8dGl0bGUgaWQ9InRpdGxlMjU3MDY5Ij5EeW5hbWljIENSTSBTZXJ2ZXI8L3RpdGxlPiYjeGE7CQk8ZyBpZD0iZ3JvdXAxMTMwOS0yIj4mI3hhOwkJCTx0aXRsZSBpZD0idGl0bGUyNTcwNzEiPkdlbmVyaWMgU2VydmljZS4xOTQxMTwvdGl0bGU+JiN4YTsJCQk8ZyBpZD0ic2hhcGUxMTMxMC0zIiB0cmFuc2Zvcm09InRyYW5zbGF0ZSgwLC0wLjAwNzM5ODc2KSI+JiN4YTsJCQkJPHRpdGxlIGlkPSJ0aXRsZTI1NzA3MyI+cmVjdDE1NDA1PC90aXRsZT4mI3hhOwkJCQkmI3hhOwkJCQkJPHJlY3QgaWQ9InJlY3QyNTcwNzUiIHk9IjMuMDEiIHN0eWxlPSJmaWxsOiNGRkZGRkY7c3Ryb2tlOiM1NTZBOEE7c3Ryb2tlLXdpZHRoOjEuNTtzdHJva2UtbWl0ZXJsaW1pdDozOyIgd2lkdGg9IjM5Ljc1IiBoZWlnaHQ9IjY4LjI1Ii8+JiN4YTsJCQk8L2c+JiN4YTsJCQk8ZyBpZD0iZ3JvdXAxMTMxMS01IiB0cmFuc2Zvcm09InRyYW5zbGF0ZSgxLjUsLTAuNzU3Mzk5KSI+JiN4YTsJCQkJPHRpdGxlIGlkPSJ0aXRsZTI1NzA3OCI+ZzE1NDI1PC90aXRsZT4mI3hhOwkJCQk8ZyBpZD0ic2hhcGUxMTMxMi02IiB0cmFuc2Zvcm09InRyYW5zbGF0ZSgxOCkiPiYjeGE7CQkJCQk8dGl0bGUgaWQ9InRpdGxlMjU3MDgwIj5yZWN0MTU0MDc8L3RpdGxlPiYjeGE7CQkJCQk8cmVjdCBpZD0icmVjdDI1NzA4MiIgeT0iNC41MSIgc3R5bGU9ImZpbGw6I0U1RTVFNTsiIHdpZHRoPSIxOS41IiBoZWlnaHQ9IjY2Ljc1Ii8+JiN4YTsJCQkJPC9nPiYjeGE7CQkJCTxnIGlkPSJzaGFwZTExMzEzLTgiIHRyYW5zZm9ybT0idHJhbnNsYXRlKDAsLTQ4KSI+JiN4YTsJCQkJCTx0aXRsZSBpZD0idGl0bGUyNTcwODUiPnJlY3QxNTQwOTwvdGl0bGU+JiN4YTsJCQkJCTxyZWN0IGlkPSJyZWN0MjU3MDg3IiB5PSI2OS4wMSIgc3R5bGU9ImZpbGw6IzJCQzdGNDsiIHdpZHRoPSIxOCIgaGVpZ2h0PSIyLjI1Ii8+JiN4YTsJCQkJPC9nPiYjeGE7CQkJCTxnIGlkPSJzaGFwZTExMzE0LTEwIiB0cmFuc2Zvcm09InRyYW5zbGF0ZSgwLC01OC41KSI+JiN4YTsJCQkJCTx0aXRsZSBpZD0idGl0bGUyNTcwOTAiPnBvbHlnb24xNTQxMTwvdGl0bGU+JiN4YTsJCQkJCTxyZWN0IGlkPSJyZWN0MjU3MDkyIiB5PSI2OS4wMSIgc3R5bGU9ImZpbGw6bm9uZTsiIHdpZHRoPSIyNyIgaGVpZ2h0PSIyLjI1Ii8+JiN4YTsJCQkJPC9nPiYjeGE7CQkJCTxnIGlkPSJzaGFwZTExMzE1LTEyIiB0cmFuc2Zvcm09InRyYW5zbGF0ZSgwLC01OC41KSI+JiN4YTsJCQkJCTx0aXRsZSBpZD0idGl0bGUyNTcwOTUiPnBvbHlsaW5lMTU0MTM8L3RpdGxlPiYjeGE7CQkJCQk8cmVjdCBpZD0icmVjdDI1NzA5NyIgeT0iNjkuMDEiIHN0eWxlPSJmaWxsOm5vbmU7IiB3aWR0aD0iMjciIGhlaWdodD0iMi4yNSIvPiYjeGE7CQkJCTwvZz4mI3hhOwkJCQk8ZyBpZD0ic2hhcGUxMTMxNi0xNCIgdHJhbnNmb3JtPSJ0cmFuc2xhdGUoMCwtNTMuMjUpIj4mI3hhOwkJCQkJPHRpdGxlIGlkPSJ0aXRsZTI1NzEwMCI+cmVjdDE1NDE1PC90aXRsZT4mI3hhOwkJCQkJPHJlY3QgaWQ9InJlY3QyNTcxMDIiIHk9IjY5LjAxIiBzdHlsZT0iZmlsbDojMkJDN0Y0OyIgd2lkdGg9IjE4IiBoZWlnaHQ9IjIuMjUiLz4mI3hhOwkJCQk8L2c+JiN4YTsJCQkJPGcgaWQ9InNoYXBlMTEzMTctMTYiIHRyYW5zZm9ybT0idHJhbnNsYXRlKDAsLTU4LjUpIj4mI3hhOwkJCQkJPHRpdGxlIGlkPSJ0aXRsZTI1NzEwNSI+cmVjdDE1NDE3PC90aXRsZT4mI3hhOwkJCQkJPHJlY3QgaWQ9InJlY3QyNTcxMDciIHk9IjY5LjAxIiBzdHlsZT0iZmlsbDojMkJDN0Y0OyIgd2lkdGg9IjE4IiBoZWlnaHQ9IjIuMjUiLz4mI3hhOwkJCQk8L2c+JiN4YTsJCQkJPGcgaWQ9InNoYXBlMTEzMTgtMTgiIHRyYW5zZm9ybT0idHJhbnNsYXRlKDE4LC00OCkiPiYjeGE7CQkJCQk8dGl0bGUgaWQ9InRpdGxlMjU3MTEwIj5yZWN0MTU0MTk8L3RpdGxlPiYjeGE7CQkJCQk8cmVjdCBpZD0icmVjdDI1NzExMiIgeT0iNjkuMDEiIHN0eWxlPSJmaWxsOiM1NTZBOEE7IiB3aWR0aD0iMTkuNSIgaGVpZ2h0PSIyLjI1Ii8+JiN4YTsJCQkJPC9nPiYjeGE7CQkJCTxnIGlkPSJzaGFwZTExMzE5LTIwIiB0cmFuc2Zvcm09InRyYW5zbGF0ZSgxOCwtNTMuMjUpIj4mI3hhOwkJCQkJPHRpdGxlIGlkPSJ0aXRsZTI1NzExNSI+cmVjdDE1NDIxPC90aXRsZT4mI3hhOwkJCQkJPHJlY3QgaWQ9InJlY3QyNTcxMTciIHk9IjY5LjAxIiBzdHlsZT0iZmlsbDojNTU2QThBOyIgd2lkdGg9IjE5LjUiIGhlaWdodD0iMi4yNSIvPiYjeGE7CQkJCTwvZz4mI3hhOwkJCQk8ZyBpZD0ic2hhcGUxMTMyMC0yMiIgdHJhbnNmb3JtPSJ0cmFuc2xhdGUoMTgsLTU4LjUpIj4mI3hhOwkJCQkJPHRpdGxlIGlkPSJ0aXRsZTI1NzEyMCI+cmVjdDE1NDIzPC90aXRsZT4mI3hhOwkJCQkJPHJlY3QgaWQ9InJlY3QyNTcxMjIiIHk9IjY5LjAxIiBzdHlsZT0iZmlsbDojNTU2QThBOyIgd2lkdGg9IjE5LjUiIGhlaWdodD0iMi4yNSIvPiYjeGE7CQkJCTwvZz4mI3hhOwkJCTwvZz4mI3hhOwkJCTxnIGlkPSJzaGFwZTExMzIxLTI0IiB0cmFuc2Zvcm09InRyYW5zbGF0ZSgwLjc1LC01OS4yNTc0KSI+JiN4YTsJCQkJPHRpdGxlIGlkPSJ0aXRsZTI1NzEyNiI+cmVjdDE1NDI3PC90aXRsZT4mI3hhOwkJCQk8cmVjdCBpZD0icmVjdDI1NzEyOCIgeT0iNjkuMDEiIHN0eWxlPSJmaWxsOiM1NTZBOEE7IiB3aWR0aD0iMi4yNSIgaGVpZ2h0PSIyLjI1Ii8+JiN4YTsJCQk8L2c+JiN4YTsJCQk8ZyBpZD0ic2hhcGUxMTMyMi0yNiIgdHJhbnNmb3JtPSJ0cmFuc2xhdGUoMC43NSwtNTQuMDA3NCkiPiYjeGE7CQkJCTx0aXRsZSBpZD0idGl0bGUyNTcxMzEiPnJlY3QxNTQyOTwvdGl0bGU+JiN4YTsJCQkJPHJlY3QgaWQ9InJlY3QyNTcxMzMiIHk9IjY5LjAxIiBzdHlsZT0iZmlsbDojNTU2QThBOyIgd2lkdGg9IjIuMjUiIGhlaWdodD0iMi4yNSIvPiYjeGE7CQkJPC9nPiYjeGE7CQkJPGcgaWQ9InNoYXBlMTEzMjMtMjgiIHRyYW5zZm9ybT0idHJhbnNsYXRlKDAuNzUsLTQ4Ljc1NzQpIj4mI3hhOwkJCQk8dGl0bGUgaWQ9InRpdGxlMjU3MTM2Ij5yZWN0MTU0MzE8L3RpdGxlPiYjeGE7CQkJCTxyZWN0IGlkPSJyZWN0MjU3MTM4IiB5PSI2OS4wMSIgc3R5bGU9ImZpbGw6IzU1NkE4QTsiIHdpZHRoPSIyLjI1IiBoZWlnaHQ9IjIuMjUiLz4mI3hhOwkJCTwvZz4mI3hhOwkJCTxnIGlkPSJzaGFwZTExMzI0LTMwIiB0cmFuc2Zvcm09InRyYW5zbGF0ZSgxMy42OTgzKSI+JiN4YTsJCQkJPHRpdGxlIGlkPSJ0aXRsZTI1NzE0MSI+cG9seWdvbjE1NDM1LjExNzM3PC90aXRsZT4mI3hhOwkJCQkmI3hhOwkJCQkJPHBhdGggaWQ9InBhdGgyNTcxNDMiIGlua3NjYXBlOmNvbm5lY3Rvci1jdXJ2YXR1cmU9IjAiIHN0eWxlPSJmaWxsOiNGRkZGRkY7c3Ryb2tlOiMwMDkxQzg7c3Ryb2tlLXdpZHRoOjEuNTtzdHJva2UtbWl0ZXJsaW1pdDozOyIgZD0iICAgICAgTTguMjcsNzEuMjZMMCw1Ny4wMmw4LjI3LTE0LjIzaDE2LjU1bDguMjcsMTQuMjNsLTguMjcsMTQuMjRIOC4yN3oiLz4mI3hhOwkJCTwvZz4mI3hhOwkJPC9nPiYjeGE7CQk8ZyBpZD0iZ3JvdXAxMTMyNS0zMiIgdHJhbnNmb3JtPSJ0cmFuc2xhdGUoMjQuNTQyMSwtMy40NzYxOCkiPiYjeGE7CQkJPHRpdGxlIGlkPSJ0aXRsZTI1NzE0NyI+RHluYW1pYyAzNjUgIzI8L3RpdGxlPiYjeGE7CQkJPGcgaWQ9InNoYXBlMTEzMjYtMzMiIHRyYW5zZm9ybT0idHJhbnNsYXRlKDAsLTAuMTQ5Mzc5KSI+JiN4YTsJCQkJPHRpdGxlIGlkPSJ0aXRsZTI1NzE0OSI+cG9seWdvbjEwNTg8L3RpdGxlPiYjeGE7CQkJCTxwYXRoIGlkPSJwYXRoMjU3MTUxIiBpbmtzY2FwZTpjb25uZWN0b3ItY3VydmF0dXJlPSIwIiBzdHlsZT0iZmlsbDojM0E5NkREOyIgZD0iTTAsNTYuNjZ2MTQuNmw0LjE0LTExLjg4TDAsNTYuNjZ6Ii8+JiN4YTsJCQk8L2c+JiN4YTsJCQk8ZyBpZD0ic2hhcGUxMTMyNy0zNSIgdHJhbnNmb3JtPSJ0cmFuc2xhdGUoMC4xODkyMTMpIj4mI3hhOwkJCQk8dGl0bGUgaWQ9InRpdGxlMjU3MTU0Ij5wb2x5Z29uMTA2MDwvdGl0bGU+JiN4YTsJCQkJPHBhdGggaWQ9InBhdGgyNTcxNTYiIGlua3NjYXBlOmNvbm5lY3Rvci1jdXJ2YXR1cmU9IjAiIHN0eWxlPSJmaWxsOiMzQTk2REQ7IiBkPSJNMCw3MS4yNmwxMy4wOS03LjM1di02Ljc0TDAsNzEuMjZ6Ii8+JiN4YTsJCQk8L2c+JiN4YTsJCQk8ZyBpZD0ic2hhcGUxMTMyOC0zNyIgdHJhbnNmb3JtPSJ0cmFuc2xhdGUoMCwtMTEuNTEyMSkiPiYjeGE7CQkJCTx0aXRsZSBpZD0idGl0bGUyNTcxNTkiPnBvbHlnb24xMDYyPC90aXRsZT4mI3hhOwkJCQk8cGF0aCBpZD0icGF0aDI1NzE2MSIgaW5rc2NhcGU6Y29ubmVjdG9yLWN1cnZhdHVyZT0iMCIgc3R5bGU9ImZpbGw6IzNBOTZERDsiIGQ9Ik04LjU0LDcxLjI2bDMuOTctMy4yM0wwLDYxLjM4djUuNjkgICAgICBMOC41NCw3MS4yNnoiLz4mI3hhOwkJCTwvZz4mI3hhOwkJPC9nPiYjeGE7CTwvZz4mI3hhOzwvZz4mI3hhOzwvc3ZnPg==;" vertex="1" parent="1">
          <mxGeometry x="562" y="10" width="48" height="70" as="geometry" />
        </mxCell>
        <mxCell id="GDYjR2dz1pKBAn3Fns0m-49" value="" style="edgeStyle=orthogonalEdgeStyle;rounded=0;orthogonalLoop=1;jettySize=auto;html=1;startArrow=classic;startFill=1;" edge="1" parent="1" source="GDYjR2dz1pKBAn3Fns0m-48" target="GDYjR2dz1pKBAn3Fns0m-43">
          <mxGeometry relative="1" as="geometry" />
        </mxCell>
        <mxCell id="GDYjR2dz1pKBAn3Fns0m-50" style="edgeStyle=orthogonalEdgeStyle;rounded=0;orthogonalLoop=1;jettySize=auto;html=1;startArrow=classic;startFill=1;" edge="1" parent="1" source="GDYjR2dz1pKBAn3Fns0m-48" target="GDYjR2dz1pKBAn3Fns0m-4">
          <mxGeometry relative="1" as="geometry" />
        </mxCell>
        <mxCell id="GDYjR2dz1pKBAn3Fns0m-51" style="edgeStyle=orthogonalEdgeStyle;rounded=0;orthogonalLoop=1;jettySize=auto;html=1;startArrow=classic;startFill=1;" edge="1" parent="1" source="GDYjR2dz1pKBAn3Fns0m-48" target="GDYjR2dz1pKBAn3Fns0m-47">
          <mxGeometry relative="1" as="geometry">
            <Array as="points">
              <mxPoint x="750" y="10" />
              <mxPoint x="750" y="10" />
            </Array>
          </mxGeometry>
        </mxCell>
        <mxCell id="GDYjR2dz1pKBAn3Fns0m-48" value="TIS" style="aspect=fixed;perimeter=ellipsePerimeter;html=1;align=center;shadow=0;dashed=0;spacingTop=3;image;image=img/lib/active_directory/internet_cloud.svg;" vertex="1" parent="1">
          <mxGeometry x="790" y="10" width="50" height="31.5" as="geometry" />
        </mxCell>
      </root>
    </mxGraphModel>
  </diagram>
</mxfile>
